<?xml version="1.0" encoding="utf-8"?>
<!-- Generator: Adobe Illustrator 25.2.0, SVG Export Plug-In . SVG Version: 6.00 Build 0)  -->
<svg version="1.1" id="Layer_1" xmlns="http://www.w3.org/2000/svg" xmlns:xlink="http://www.w3.org/1999/xlink" x="0px" y="0px"
	 viewBox="0 0 44 44" style="enable-background:new 0 0 44 44;" xml:space="preserve">
<style type="text/css">
	.st0{clip-path:url(#SVGID_2_);}
	.st1{fill:none;stroke:#141518;stroke-width:0.6;stroke-linecap:round;stroke-linejoin:round;}
</style>
<g transform="translate(0 0)">
	<g>
		<defs>
			<rect id="SVGID_1_" width="44" height="44"/>
		</defs>
		<clipPath id="SVGID_2_">
			<use xlink:href="#SVGID_1_"  style="overflow:visible;"/>
		</clipPath>
		<g class="st0">
			<path class="st1" d="M34.7,40H9.3c-3.1,0-5.7-2.5-5.7-5.7c0,0,0,0,0,0h36.7C40.3,37.5,37.8,40,34.7,40L34.7,40z"/>
			<path class="st1" d="M13,34.4h-1c-3.3,0-5.9-2.7-5.9-5.9c0-3.3,2.7-5.9,5.9-5.9c0,0,0,0,0,0h1c3.3,0,5.9,2.7,5.9,5.9
				C18.9,31.7,16.2,34.4,13,34.4z"/>
			<path class="st1" d="M31.8,34.4h-1c-3.3,0-5.9-2.7-5.9-5.9s2.7-5.9,5.9-5.9c0,0,0,0,0,0h1c3.3,0,5.9,2.7,5.9,5.9
				S35,34.4,31.8,34.4C31.8,34.4,31.8,34.4,31.8,34.4z"/>
			<circle class="st1" cx="12.5" cy="17.1" r="5.4"/>
			<circle class="st1" cx="31.3" cy="17.1" r="5.4"/>
			<line class="st1" x1="12.5" y1="11.7" x2="12.5" y2="4"/>
			<line class="st1" x1="31.3" y1="11.7" x2="31.3" y2="4"/>
		</g>
	</g>
</g>
</svg>
