<?xml version="1.0" encoding="utf-8"?>
<!-- Generator: Adobe Illustrator 25.2.0, SVG Export Plug-In . SVG Version: 6.00 Build 0)  -->
<svg version="1.1" id="Layer_1" xmlns="http://www.w3.org/2000/svg" xmlns:xlink="http://www.w3.org/1999/xlink" x="0px" y="0px"
	 viewBox="0 0 44 44" style="enable-background:new 0 0 44 44;" xml:space="preserve">
<style type="text/css">
	.st0{clip-path:url(#SVGID_2_);}
	.st1{fill:none;stroke:#141518;stroke-width:0.6;stroke-linecap:round;stroke-linejoin:round;}
	.st2{fill:#141518;}
</style>
<g transform="translate(0 0)">
	<g>
		<defs>
			<rect id="SVGID_1_" width="44" height="44"/>
		</defs>
		<clipPath id="SVGID_2_">
			<use xlink:href="#SVGID_1_"  style="overflow:visible;"/>
		</clipPath>
		<g class="st0">
			<path class="st1" d="M38.7,29.8v2.3c0,3.4-2.7,6.1-6.1,6.1H11.2c-3.4,0-6.1-2.7-6.1-6.1c0,0,0,0,0,0v-2.3"/>
			<path class="st1" d="M38.7,18.7c0-7.1-8.7-12.8-15-12.8h-3.3c-6.3,0-15.3,5.7-15.3,12.8H38.7z"/>
			<path class="st1" d="M5.5,23.7h33c0.9,0,1.6,0.7,1.6,1.6v0.8c0,0.9-0.7,1.6-1.6,1.6h-33c-0.9,0-1.6-0.7-1.6-1.6v-0.8
				C3.9,24.4,4.6,23.7,5.5,23.7z"/>
			<rect x="5.1" y="27.8" class="st1" width="33.6" height="1.9"/>
			<path class="st1" d="M5,21.9c1.7-1.5,4.2-1.7,6.1-0.5c0.9,0.6,2,1,3.1,1.1c2.3,0.1,4.1-1.8,6.4-2.1c3-0.5,5.5,2.2,8.5,1.7
				c1.3-0.2,2.4-1.1,3.7-1.6c2.1-0.7,4.5-0.1,6.1,1.5"/>
			<path class="st2" d="M12.1,13.7c0,0.4-0.4,0.8-0.8,0.8c-0.4,0-0.8-0.4-0.8-0.8c0-0.4,0.4-0.8,0.8-0.8
				C11.8,12.9,12.1,13.2,12.1,13.7L12.1,13.7"/>
			<path class="st2" d="M30.4,11c0,0.4-0.4,0.8-0.8,0.8s-0.8-0.4-0.8-0.8s0.4-0.8,0.8-0.8l0,0C30,10.2,30.4,10.5,30.4,11"/>
			<path class="st2" d="M20.3,9.2c0,0.4-0.3,0.8-0.8,0.8c-0.4,0-0.8-0.3-0.8-0.8s0.3-0.8,0.8-0.8c0,0,0,0,0,0
				C19.9,8.5,20.3,8.8,20.3,9.2"/>
			<path class="st2" d="M24.2,14.1c0,0.5-0.4,0.8-0.8,0.8c-0.5,0-0.8-0.4-0.8-0.8s0.4-0.8,0.8-0.8c0,0,0,0,0,0
				C23.8,13.3,24.2,13.6,24.2,14.1C24.2,14.1,24.2,14.1,24.2,14.1"/>
			<path class="st2" d="M17.5,16c0,0.5-0.4,0.8-0.8,0.8c-0.5,0-0.8-0.4-0.8-0.8c0-0.5,0.4-0.8,0.8-0.8l0,0
				C17.1,15.2,17.5,15.6,17.5,16"/>
			<path class="st2" d="M34.5,15.7c0,0.5-0.4,0.8-0.8,0.8c-0.5,0-0.8-0.4-0.8-0.8c0-0.5,0.4-0.8,0.8-0.8c0,0,0,0,0,0
				C34.1,14.8,34.5,15.2,34.5,15.7C34.5,15.6,34.5,15.7,34.5,15.7"/>
		</g>
	</g>
</g>
</svg>
