<?xml version="1.0" encoding="utf-8"?>
<!-- Generator: Adobe Illustrator 25.2.0, SVG Export Plug-In . SVG Version: 6.00 Build 0)  -->
<svg version="1.1" id="Layer_1" xmlns="http://www.w3.org/2000/svg" xmlns:xlink="http://www.w3.org/1999/xlink" x="0px" y="0px"
	 viewBox="0 0 44 44" style="enable-background:new 0 0 44 44;" xml:space="preserve">
<style type="text/css">
	.st0{clip-path:url(#SVGID_2_);}
	.st1{fill:none;stroke:#141518;stroke-width:0.6;stroke-linecap:round;stroke-linejoin:round;}
</style>
<g>
	<defs>
		<rect id="SVGID_1_" width="44" height="44"/>
	</defs>
	<clipPath id="SVGID_2_">
		<use xlink:href="#SVGID_1_"  style="overflow:visible;"/>
	</clipPath>
	<g class="st0">
		<path class="st1" d="M24.9,11.7l4.5-2.7c13-0.3,12.9,10.7,12.9,10.7L1.6,25.8L20,14.6"/>
		<path class="st1" d="M1.6,25.8V40h33.9c0,0,6.2,0.2,6.9-5.6V19.6"/>
		<path class="st1" d="M26.9,10.5c11.6,1.5,10.7,9.9,10.7,9.9v12.6c0,1.4-1.1,2.5-2.5,2.5H1.6"/>
		<path class="st1" d="M27,14.8c0,1.9-1.6,3.5-3.5,3.5S20,16.8,20,14.8s1.6-3.5,3.5-3.5S27,12.9,27,14.8L27,14.8z"/>
		<path class="st1" d="M23.5,11.4C23,8.7,23.9,5.9,25.8,4"/>
	</g>
</g>
</svg>
