<?xml version="1.0" encoding="utf-8"?>
<!-- Generator: Adobe Illustrator 25.2.0, SVG Export Plug-In . SVG Version: 6.00 Build 0)  -->
<svg version="1.1" id="Layer_1" xmlns="http://www.w3.org/2000/svg" xmlns:xlink="http://www.w3.org/1999/xlink" x="0px" y="0px"
	 viewBox="0 0 44 44" style="enable-background:new 0 0 44 44;" xml:space="preserve">
<style type="text/css">
	.st0{clip-path:url(#SVGID_2_);}
	.st1{fill:none;stroke:#141518;stroke-width:0.6;stroke-linecap:round;stroke-linejoin:round;}
</style>
<g transform="translate(0 0.001)">
	<g>
		<defs>
			<rect id="SVGID_1_" y="0" width="44" height="44"/>
		</defs>
		<clipPath id="SVGID_2_">
			<use xlink:href="#SVGID_1_"  style="overflow:visible;"/>
		</clipPath>
		<g class="st0">
			<path class="st1" d="M40.6,35.5H3.4c-1.7,0-3.1-1.5-3.1-3.2c0-1.7,1.4-3.1,3.1-3.1h37.1c1.7,0,3.1,1.5,3.1,3.2
				C43.6,34.1,42.3,35.4,40.6,35.5z"/>
			<path class="st1" d="M4.5,29.2c0-9.2,7.8-16.7,17.5-16.7S39.5,20,39.5,29.2"/>
			<path class="st1" d="M20.6,12.5V9.9c0-0.8,0.6-1.4,1.4-1.4c0.8,0,1.4,0.6,1.4,1.4v2.6"/>
		</g>
	</g>
</g>
</svg>
