<?xml version="1.0" encoding="utf-8"?>
<!-- Generator: Adobe Illustrator 25.2.3, SVG Export Plug-In . SVG Version: 6.00 Build 0)  -->
<svg version="1.1" xmlns="http://www.w3.org/2000/svg" xmlns:xlink="http://www.w3.org/1999/xlink" x="0px" y="0px"
	 viewBox="0 0 100 100" style="enable-background:new 0 0 100 100;" xml:space="preserve">
<style type="text/css">
	.st0{fill:#EAEDF4;}
	.st1{fill:#95BB7B;}
	.st2{fill:#C54756;}
	.st3{fill:#FFFFFF;}
	.st4{fill:#B5B5B5;stroke:#000000;stroke-width:1.1359;stroke-linecap:round;stroke-linejoin:round;stroke-miterlimit:10;}
	.st5{fill:none;stroke:#000000;stroke-width:1.1359;stroke-linecap:round;stroke-linejoin:round;stroke-miterlimit:10;}
	.st6{fill:#DDC39E;}
	.st7{fill:#205B52;}
	.st8{fill:#FBD586;}
	.st9{fill:#F9E9CD;}
	.st10{fill:none;stroke:#141518;stroke-width:1.2449;stroke-linecap:round;stroke-linejoin:round;stroke-miterlimit:10;}
	.st11{fill:#C3E0AA;}
	.st12{fill:#E2B360;}
	.st13{fill:#184D47;}
	.st14{fill:#E2E2E2;stroke:#000000;stroke-width:1.1359;stroke-linecap:round;stroke-linejoin:round;stroke-miterlimit:10;}
	.st15{fill:#E2E2E2;}
	.st16{fill:#B5B5B5;}
	.st17{fill:#E2E2E2;stroke:#141518;stroke-width:1.1511;stroke-linecap:round;stroke-linejoin:round;stroke-miterlimit:10;}
	.st18{fill:#141518;stroke:#000000;stroke-miterlimit:10;}
	.st19{fill:#51442E;}
	.st20{fill:#FBD586;stroke:#000000;stroke-width:1.1359;stroke-linecap:round;stroke-linejoin:round;stroke-miterlimit:10;}
	.st21{fill:#95BB7B;stroke:#000000;stroke-width:1.1359;stroke-miterlimit:10;}
	.st22{fill:#EAEAEA;stroke:#000000;stroke-width:1.1359;stroke-miterlimit:10;}
	.st23{fill:none;stroke:#141518;stroke-width:1.1359;stroke-linecap:round;stroke-linejoin:round;stroke-miterlimit:10;}
	.st24{fill:#184D47;stroke:#000000;stroke-width:1.1359;stroke-linecap:round;stroke-linejoin:round;stroke-miterlimit:10;}
	.st25{fill:#933449;}
	.st26{fill:#EAEAEA;stroke:#000000;stroke-width:1.1359;stroke-linecap:round;stroke-linejoin:round;stroke-miterlimit:10;}
	.st27{fill:#F7DDAD;}
	.st28{fill:#B7DB97;stroke:#000000;stroke-width:1.1359;stroke-linecap:round;stroke-linejoin:round;stroke-miterlimit:10;}
	.st29{fill:#C54756;stroke:#000000;stroke-width:1.1359;stroke-linecap:round;stroke-linejoin:round;stroke-miterlimit:10;}
	.st30{fill:#E56782;}
	.st31{fill:#FFFFFF;stroke:#000000;stroke-width:1.1359;stroke-linecap:round;stroke-linejoin:round;stroke-miterlimit:10;}
	.st32{fill:none;}
</style>
<g id="Layer_2">
	<path class="st0" d="M32.16,81.42c-9.35-5-17.57-13.51-22.1-23.1c-7.65-16.19,2.41-41.96,20.19-46.91
		c3.18-0.88,6.63-1.35,9.73-0.24c3.9,1.4,6.56,5.05,8.33,8.8c1.78,3.75,2.93,7.8,5.14,11.32c4.41,7.03,11.78,11.31,18.82,15.28
		c6.14,3.46,15.48,7.35,18.97,13.86c2.31,4.31,1.22,9.73-1.1,14.04c-5.14,9.58-16.45,14.52-26.48,14.95
		C52.15,89.92,42.64,87.03,32.16,81.42z"/>
</g>
<g id="Layer_1">
	<g>
		<polyline class="st3" points="32.9,21.45 31.8,29.78 31.8,35.59 36.63,42.64 49.37,42.64 63.67,40.71 68.19,35.59 67.38,22.91 
			65.98,20.29 57.06,17.79 49.51,17.19 41.25,18.05 34.05,20.24 32.9,21.45 		"/>
		<polygon class="st12" points="31.98,32.69 32.18,46.05 33.89,58.2 36.51,69.67 37.36,76.18 37.64,85.89 45.27,86.97 54.08,86.93 
			62.19,85.95 62.76,80.24 63.47,72.04 65.39,61.97 67.17,50.97 67.78,45.03 68.31,33.26 59.57,35.59 48.42,35.96 39.34,35.33 		"/>
		<path class="st3" d="M56.6,51.56l6.21,0.86c0,0-3.05,12.81-3.46,30.29h-5.29C54.07,82.71,56.79,69.81,56.6,51.56z"/>
		<path class="st3" d="M56.87,49.21l0.63-5.43l6.07,0.66c0,0-0.07,3.26-0.76,5.54L56.87,49.21z"/>
		<path class="st5" d="M66.98,20.69c0,0,4.01,16.96-2.58,45.87c0,0-1.47,5.47-1.83,17.95c-0.02,0.8-0.61,1.48-1.4,1.61
			c-3.5,0.57-13.17,1.82-22.17,0.05c-0.79-0.16-1.35-0.87-1.34-1.67c0.03-3.31-0.1-11.95-2.03-18.52c0,0-6.76-23.93-2.59-45.3"/>
		<path class="st23" d="M33.05,20.69c0,0,15.24-7.9,33.94,0"/>
		<path class="st5" d="M67.96,32.95C66.39,34.47,58.81,35.7,50,35.7c-8.91,0-16.56-1.46-18.02-3.01"/>
		<path class="st26" d="M40.84,22.87c0.5,3.49,0.91,7.14-0.28,10.45c-0.4,1.12-0.99,2.2-1.06,3.39c-0.07,1.19,0.59,2.56,1.77,2.72
			c1.9,0.27,2.73-0.72,2.92-1.94s-0.21-2.43-0.49-3.63c-0.8-3.45-0.02-8.16,1.22-11.48"/>
		<ellipse class="st26" cx="50.02" cy="19.85" rx="16.97" ry="3.05"/>
	</g>
	<rect y="0" class="st32" width="100" height="100"/>
</g>
</svg>
