<?xml version="1.0" encoding="utf-8"?>
<!-- Generator: Adobe Illustrator 25.2.3, SVG Export Plug-In . SVG Version: 6.00 Build 0)  -->
<svg version="1.1" xmlns="http://www.w3.org/2000/svg" xmlns:xlink="http://www.w3.org/1999/xlink" x="0px" y="0px"
	 viewBox="0 0 100 100" style="enable-background:new 0 0 100 100;" xml:space="preserve">
<style type="text/css">
	.st0{fill:#EAEDF4;}
	.st1{fill:#95BB7B;}
	.st2{fill:#C54756;}
	.st3{fill:#FFFFFF;}
	.st4{fill:#B5B5B5;stroke:#000000;stroke-width:1.1359;stroke-linecap:round;stroke-linejoin:round;stroke-miterlimit:10;}
	.st5{fill:none;stroke:#000000;stroke-width:1.1359;stroke-linecap:round;stroke-linejoin:round;stroke-miterlimit:10;}
	.st6{fill:#DDC39E;}
	.st7{fill:#205B52;}
	.st8{fill:#FBD586;}
	.st9{fill:#F9E9CD;}
	.st10{fill:none;stroke:#141518;stroke-width:1.2449;stroke-linecap:round;stroke-linejoin:round;stroke-miterlimit:10;}
	.st11{fill:#C3E0AA;}
	.st12{fill:#E2B360;}
	.st13{fill:#184D47;}
	.st14{fill:#E2E2E2;stroke:#000000;stroke-width:1.1359;stroke-linecap:round;stroke-linejoin:round;stroke-miterlimit:10;}
	.st15{fill:#E2E2E2;}
	.st16{fill:#B5B5B5;}
	.st17{fill:#E2E2E2;stroke:#141518;stroke-width:1.1511;stroke-linecap:round;stroke-linejoin:round;stroke-miterlimit:10;}
	.st18{fill:#141518;stroke:#000000;stroke-miterlimit:10;}
	.st19{fill:#51442E;}
	.st20{fill:#FBD586;stroke:#000000;stroke-width:1.1359;stroke-linecap:round;stroke-linejoin:round;stroke-miterlimit:10;}
	.st21{fill:#95BB7B;stroke:#000000;stroke-width:1.1359;stroke-miterlimit:10;}
	.st22{fill:#EAEAEA;stroke:#000000;stroke-width:1.1359;stroke-miterlimit:10;}
	.st23{fill:none;stroke:#141518;stroke-width:1.1359;stroke-linecap:round;stroke-linejoin:round;stroke-miterlimit:10;}
	.st24{fill:#184D47;stroke:#000000;stroke-width:1.1359;stroke-linecap:round;stroke-linejoin:round;stroke-miterlimit:10;}
	.st25{fill:#933449;}
	.st26{fill:#EAEAEA;stroke:#000000;stroke-width:1.1359;stroke-linecap:round;stroke-linejoin:round;stroke-miterlimit:10;}
	.st27{fill:#F7DDAD;}
	.st28{fill:#B7DB97;stroke:#000000;stroke-width:1.1359;stroke-linecap:round;stroke-linejoin:round;stroke-miterlimit:10;}
	.st29{fill:#C54756;stroke:#000000;stroke-width:1.1359;stroke-linecap:round;stroke-linejoin:round;stroke-miterlimit:10;}
	.st30{fill:#E56782;}
	.st31{fill:#FFFFFF;stroke:#000000;stroke-width:1.1359;stroke-linecap:round;stroke-linejoin:round;stroke-miterlimit:10;}
	.st32{fill:none;}
</style>
<g id="Layer_2">
	<path class="st0" d="M64.65,82.94c-9.48,4.74-21.17,6.55-31.62,4.71C15.39,84.55,0.16,61.47,6.38,44.09
		c1.11-3.11,2.72-6.2,5.42-8.09c3.4-2.38,7.91-2.44,12-1.73s8.07,2.11,12.21,2.34c8.28,0.46,16.03-3.09,23.34-6.55
		c6.37-3.02,14.93-8.4,22.27-7.49c4.85,0.6,8.65,4.62,10.83,9c4.85,9.73,2.36,21.81-3.07,30.25C83.13,71.52,75.28,77.62,64.65,82.94
		z"/>
</g>
<g id="Layer_1">
	<g>
		<polyline class="st1" points="30.41,36.4 48.95,56.24 50.96,56.24 59.68,47.25 70.73,35.15 65.78,35.72 50,36.4 35.31,36.01 
			29.63,35.15 30.41,36.4 		"/>
		<polyline class="st3" points="23.13,28.42 29.63,35.15 70.73,35.15 77.85,27.34 71.9,27.01 33.07,27.01 21.84,27.01 23.13,28.42 
					"/>
		<path class="st22" d="M52,85.77c6.29,0.13,11.11,0.85,11.11,1.71c0,0.96-5.87,1.73-13.12,1.73s-13.12-0.78-13.12-1.73
			c0-0.88,4.93-1.6,11.33-1.72"/>
		<line class="st26" x1="51.79" y1="55.91" x2="51.79" y2="87.18"/>
		<line class="st26" x1="48.21" y1="87.18" x2="48.21" y2="55.91"/>
		<path class="st5" d="M50,25.87h29.2L64.6,41.86L52.45,55.16c-1.31,1.44-3.58,1.44-4.9,0L35.4,41.86L20.8,25.87H50z"/>
		<ellipse class="st26" cx="50" cy="25.87" rx="29.2" ry="2.84"/>
		<ellipse class="st28" cx="50" cy="34.32" rx="21.31" ry="2.07"/>
		<line class="st26" x1="42.72" y1="36.17" x2="25.86" y2="10.79"/>
		<circle class="st29" cx="31.98" cy="20.41" r="5.46"/>
		<path class="st3" d="M31.16,17.12c0,0-3.09,0.56-2.64,4.87h1.3c0,0-0.47-3.48,1.94-4.08L31.16,17.12z"/>
		<polygon class="st3" points="37.79,40.33 41.29,40.33 49.19,49.9 47.71,51.97 		"/>
		<line class="st26" x1="45.53" y1="36.52" x2="52.85" y2="48.1"/>
	</g>
	<rect y="0" class="st32" width="100" height="100"/>
</g>
</svg>
