<?xml version="1.0" encoding="utf-8"?>
<!-- Generator: Adobe Illustrator 25.2.3, SVG Export Plug-In . SVG Version: 6.00 Build 0)  -->
<svg version="1.1" xmlns="http://www.w3.org/2000/svg" xmlns:xlink="http://www.w3.org/1999/xlink" x="0px" y="0px"
	 viewBox="0 0 100 100" style="enable-background:new 0 0 100 100;" xml:space="preserve">
<style type="text/css">
	.st0{fill:#EAEDF4;}
	.st1{fill:#95BB7B;}
	.st2{fill:#C54756;}
	.st3{fill:#FFFFFF;}
	.st4{fill:#B5B5B5;stroke:#000000;stroke-width:1.1359;stroke-linecap:round;stroke-linejoin:round;stroke-miterlimit:10;}
	.st5{fill:none;stroke:#000000;stroke-width:1.1359;stroke-linecap:round;stroke-linejoin:round;stroke-miterlimit:10;}
	.st6{fill:#DDC39E;}
	.st7{fill:#205B52;}
	.st8{fill:#FBD586;}
	.st9{fill:#F9E9CD;}
	.st10{fill:none;stroke:#141518;stroke-width:1.2449;stroke-linecap:round;stroke-linejoin:round;stroke-miterlimit:10;}
	.st11{fill:#C3E0AA;}
	.st12{fill:#E2B360;}
	.st13{fill:#184D47;}
	.st14{fill:#E2E2E2;stroke:#000000;stroke-width:1.1359;stroke-linecap:round;stroke-linejoin:round;stroke-miterlimit:10;}
	.st15{fill:#E2E2E2;}
	.st16{fill:#B5B5B5;}
	.st17{fill:#E2E2E2;stroke:#141518;stroke-width:1.1511;stroke-linecap:round;stroke-linejoin:round;stroke-miterlimit:10;}
	.st18{fill:#141518;stroke:#000000;stroke-miterlimit:10;}
	.st19{fill:#51442E;}
	.st20{fill:#FBD586;stroke:#000000;stroke-width:1.1359;stroke-linecap:round;stroke-linejoin:round;stroke-miterlimit:10;}
	.st21{fill:#95BB7B;stroke:#000000;stroke-width:1.1359;stroke-miterlimit:10;}
	.st22{fill:#EAEAEA;stroke:#000000;stroke-width:1.1359;stroke-miterlimit:10;}
	.st23{fill:none;stroke:#141518;stroke-width:1.1359;stroke-linecap:round;stroke-linejoin:round;stroke-miterlimit:10;}
	.st24{fill:#184D47;stroke:#000000;stroke-width:1.1359;stroke-linecap:round;stroke-linejoin:round;stroke-miterlimit:10;}
	.st25{fill:#933449;}
	.st26{fill:#EAEAEA;stroke:#000000;stroke-width:1.1359;stroke-linecap:round;stroke-linejoin:round;stroke-miterlimit:10;}
	.st27{fill:#F7DDAD;}
	.st28{fill:#B7DB97;stroke:#000000;stroke-width:1.1359;stroke-linecap:round;stroke-linejoin:round;stroke-miterlimit:10;}
	.st29{fill:#C54756;stroke:#000000;stroke-width:1.1359;stroke-linecap:round;stroke-linejoin:round;stroke-miterlimit:10;}
	.st30{fill:#E56782;}
	.st31{fill:#FFFFFF;stroke:#000000;stroke-width:1.1359;stroke-linecap:round;stroke-linejoin:round;stroke-miterlimit:10;}
	.st32{fill:none;}
</style>
<g id="Layer_2">
	<path class="st0" d="M49.12,80.15c-10.6,0.25-21.94-3.11-30.61-9.23C3.89,60.59-0.04,33.22,13.01,20.15c2.33-2.33,5.1-4.44,8.36-5
		c4.09-0.7,8.2,1.17,11.59,3.56s6.39,5.35,10.04,7.32c7.3,3.95,15.82,4.05,23.9,4.03c7.05-0.01,17.09-1.22,23.34,2.73
		c4.13,2.62,5.85,7.87,5.95,12.76c0.24,10.87-7.17,20.73-15.69,26.05C70.71,77.71,61.01,79.88,49.12,80.15z"/>
</g>
<g id="Layer_1">
	<g>
		<ellipse class="st1" cx="32.3" cy="61.82" rx="11.96" ry="10.84"/>
		<ellipse class="st1" cx="67.05" cy="61.82" rx="11.96" ry="10.84"/>
		<circle class="st2" cx="32.43" cy="41.03" r="9.73"/>
		<circle class="st2" cx="66.89" cy="41.03" r="9.73"/>
		<path class="st3" d="M29.55,54.86c0,0-5.54,1.11-5.24,8.39l2.26,0.25c0,0-0.78-6.04,4.17-6.73L29.55,54.86z"/>
		<path class="st3" d="M64.31,54.86c0,0-5.54,1.11-5.24,8.39l2.26,0.25c0,0-0.78-6.04,4.17-6.73L64.31,54.86z"/>
		<path class="st3" d="M29.35,34.66c0,0-4.04,0.97-3.83,6.14l1.65,0.18c0,0-0.54-4.04,3.05-4.93L29.35,34.66z"/>
		<path class="st3" d="M64.23,34.66c0,0-4.04,0.97-3.83,6.14l1.65,0.18c0,0-0.54-4.04,3.05-4.93L64.23,34.66z"/>
		<path class="st4" d="M73.28,83.09H26.72c-5.74,0-10.39-4.65-10.39-10.39v0h67.34v0C83.67,78.44,79.02,83.09,73.28,83.09z"/>
		<path class="st5" d="M33.41,72.7h-1.81c-6.01,0-10.88-4.87-10.88-10.88v0c0-6.01,4.87-10.88,10.88-10.88h1.81
			c6.01,0,10.88,4.87,10.88,10.88v0C44.29,67.83,39.42,72.7,33.41,72.7z"/>
		<path class="st5" d="M67.95,72.7h-1.81c-6.01,0-10.88-4.87-10.88-10.88v0c0-6.01,4.87-10.88,10.88-10.88h1.81
			c6.01,0,10.88,4.87,10.88,10.88v0C78.83,67.83,73.96,72.7,67.95,72.7z"/>
		<circle class="st5" cx="32.51" cy="41.05" r="9.89"/>
		<circle class="st5" cx="67.05" cy="41.05" r="9.89"/>
		<line class="st5" x1="32.51" y1="31.16" x2="32.51" y2="16.91"/>
		<line class="st5" x1="67.05" y1="31.16" x2="67.05" y2="16.91"/>
	</g>
	<rect y="0" class="st32" width="100" height="100"/>
</g>
</svg>
