<?xml version="1.0" encoding="utf-8"?>
<!-- Generator: Adobe Illustrator 25.2.3, SVG Export Plug-In . SVG Version: 6.00 Build 0)  -->
<svg version="1.1" xmlns="http://www.w3.org/2000/svg" xmlns:xlink="http://www.w3.org/1999/xlink" x="0px" y="0px"
	 viewBox="0 0 100 100" style="enable-background:new 0 0 100 100;" xml:space="preserve">
<style type="text/css">
	.st0{fill:#EAEDF4;}
	.st1{fill:#95BB7B;}
	.st2{fill:#C54756;}
	.st3{fill:#FFFFFF;}
	.st4{fill:#B5B5B5;stroke:#000000;stroke-width:1.1359;stroke-linecap:round;stroke-linejoin:round;stroke-miterlimit:10;}
	.st5{fill:none;stroke:#000000;stroke-width:1.1359;stroke-linecap:round;stroke-linejoin:round;stroke-miterlimit:10;}
	.st6{fill:#DDC39E;}
	.st7{fill:#205B52;}
	.st8{fill:#FBD586;}
	.st9{fill:#F9E9CD;}
	.st10{fill:none;stroke:#141518;stroke-width:1.2449;stroke-linecap:round;stroke-linejoin:round;stroke-miterlimit:10;}
	.st11{fill:#C3E0AA;}
	.st12{fill:#E2B360;}
	.st13{fill:#184D47;}
	.st14{fill:#E2E2E2;stroke:#000000;stroke-width:1.1359;stroke-linecap:round;stroke-linejoin:round;stroke-miterlimit:10;}
	.st15{fill:#E2E2E2;}
	.st16{fill:#B5B5B5;}
	.st17{fill:#E2E2E2;stroke:#141518;stroke-width:1.1511;stroke-linecap:round;stroke-linejoin:round;stroke-miterlimit:10;}
	.st18{fill:#141518;stroke:#000000;stroke-miterlimit:10;}
	.st19{fill:#51442E;}
	.st20{fill:#FBD586;stroke:#000000;stroke-width:1.1359;stroke-linecap:round;stroke-linejoin:round;stroke-miterlimit:10;}
	.st21{fill:#95BB7B;stroke:#000000;stroke-width:1.1359;stroke-miterlimit:10;}
	.st22{fill:#EAEAEA;stroke:#000000;stroke-width:1.1359;stroke-miterlimit:10;}
	.st23{fill:none;stroke:#141518;stroke-width:1.1359;stroke-linecap:round;stroke-linejoin:round;stroke-miterlimit:10;}
	.st24{fill:#184D47;stroke:#000000;stroke-width:1.1359;stroke-linecap:round;stroke-linejoin:round;stroke-miterlimit:10;}
	.st25{fill:#933449;}
	.st26{fill:#EAEAEA;stroke:#000000;stroke-width:1.1359;stroke-linecap:round;stroke-linejoin:round;stroke-miterlimit:10;}
	.st27{fill:#F7DDAD;}
	.st28{fill:#B7DB97;stroke:#000000;stroke-width:1.1359;stroke-linecap:round;stroke-linejoin:round;stroke-miterlimit:10;}
	.st29{fill:#C54756;stroke:#000000;stroke-width:1.1359;stroke-linecap:round;stroke-linejoin:round;stroke-miterlimit:10;}
	.st30{fill:#E56782;}
	.st31{fill:#FFFFFF;stroke:#000000;stroke-width:1.1359;stroke-linecap:round;stroke-linejoin:round;stroke-miterlimit:10;}
	.st32{fill:none;}
</style>
<g id="Layer_2">
	<path class="st0" d="M32.81,81.01c-9.39-4.92-17.69-13.35-22.3-22.9c-7.79-16.12,2.04-41.97,19.78-47.08
		c3.17-0.91,6.62-1.41,9.73-0.32c3.92,1.37,6.6,4.99,8.41,8.73s3,7.78,5.24,11.27c4.47,6.99,11.87,11.2,18.95,15.11
		c6.17,3.41,15.54,7.21,19.09,13.7c2.35,4.29,1.3,9.72-0.97,14.05c-5.06,9.62-16.32,14.66-26.34,15.18
		C52.88,89.34,43.34,86.53,32.81,81.01z"/>
</g>
<g id="Layer_1">
	<g>
		<polygon class="st6" points="10.23,63.77 9.12,65.45 9.68,67.59 19.73,71.36 33,73.27 44.82,73.94 58.53,73.86 74.58,72.49 
			85.41,70.25 90.34,68.06 91.78,66.55 89.87,63.52 		"/>
		<polygon class="st6" points="7.11,49.78 11.02,41.54 14.97,37.15 19.77,33.59 25.41,30.74 31.57,28.64 39.32,26.69 50,26.02 
			58.29,26.52 67.08,28.1 75.15,30.77 82.88,35.12 88.44,40.44 91.18,44.68 92.94,49.1 92.69,52.39 90.17,54.72 83.7,54.72 
			10.23,55.08 8.13,53.87 6.97,51.84 		"/>
		<path class="st7" d="M13.73,59.53c-1.46,0.52-3.02,1.46-3.25,2.99c-0.03,0.2-0.03,0.43,0.08,0.6c0.14,0.22,0.43,0.3,0.69,0.36
			c1.13,0.24,2.28,0.36,3.43,0.38c0.48,0.01,0.97-0.01,1.43,0.11c0.48,0.12,0.91,0.38,1.35,0.6c1.91,0.95,4.13,1.23,6.21,0.78
			c0.82-0.18,1.62-0.46,2.45-0.55c2.6-0.28,5.05,1.38,7.66,1.53c2.45,0.14,4.78-1.05,7.23-1.25c1.21-0.09,2.44,0.06,3.6,0.46
			c0.64,0.22,1.25,0.51,1.89,0.73c1.88,0.65,3.98,0.67,5.88,0.04c0.88-0.29,1.68-0.62,2.57-0.87c3.51-0.97,7.13,1.93,10.72,1.31
			c1.02-0.18,1.97-0.63,2.92-1.05c1.92-0.85,3.92-1.57,6.01-1.72c0.62-0.04,1.26-0.03,1.85,0.17c0.46,0.16,0.88,0.44,1.32,0.66
			c1.13,0.56,2.44,0.73,3.68,0.48c2.11-0.44,3.86-2.06,6-2.32c1.2-0.15,2.42,0.15,3.62,0.06c0.27-0.02,0.55-0.06,0.78-0.2
			c0.55-0.34,0.64-1.16,0.33-1.73c-0.31-0.57-0.91-0.92-1.51-1.16c-2.34-0.94-5.02-0.62-7.4-1.45c-0.85-0.29-1.65-0.73-2.49-1.07
			c-3.91-1.6-8.31-1.03-12.53-0.8c-5.21,0.29-10.45,0.02-15.6-0.8c-5.4-0.86-10.87-1.31-16.33-1.09s-10.9,0.85-16.36,1.05
			c-0.31,0.01-0.63,0.03-0.88,0.2c-0.17,0.12-0.29,0.31-0.43,0.47c-0.36,0.45-0.86,0.76-1.35,1.07
			C16.13,58.23,14.99,59.07,13.73,59.53z"/>
		<polygon class="st2" points="83.7,54.72 85.55,57.41 84.08,59.11 13.58,59.11 12.66,57.21 13.81,54.87 		"/>
		<polygon class="st8" points="54.38,55.37 67.25,67.48 79.09,55.08 		"/>
		<polygon class="st8" points="21.9,55.37 34.77,67.48 46.61,55.08 		"/>
		<polygon class="st3" points="25.29,55.02 29.63,55.02 37.02,62.18 34.69,64.27 		"/>
		<polygon class="st3" points="57.85,55.02 62.19,55.02 69.58,62.18 67.24,64.27 		"/>
		<path class="st5" d="M69.18,65.66c1.84-0.86,3.64-1.81,5.72-1.65c2.13,0.16,4,1.49,6.13,1.35c2.33-0.15,4.06-2.02,6.4-2.1
			c0.81-0.03,1.61,0.17,2.42,0.21c0.81,0.04,1.73-0.12,2.16-0.66c0.45-0.57,0.15-1.35-0.47-1.82c-0.61-0.47-1.46-0.69-2.28-0.89
			c-1.52-0.36-3.06-0.69-4.61-0.97"/>
		<path class="st5" d="M36.34,66.12c1.83-0.49,3.68-1.21,5.57-1.13c2.86,0.12,5.29,2.05,8.15,1.89c2.11-0.12,3.88-1.36,5.98-1.55
			c3.05-0.27,5.82,1.74,8.89,1.61c0.45-0.02,0.89-0.08,1.32-0.18"/>
		<path class="st5" d="M13.75,59.23c-2.1,1.32-4.2,3.13-3.17,4.21c0.29,0.3,0.78,0.45,1.26,0.53c1.48,0.23,3.07-0.11,4.51,0.25
			c1.15,0.29,2.07,0.98,3.21,1.29c2.99,0.82,6.34-1.24,9.35-0.47c1.18,0.3,2.13,1.01,3.31,1.32c0.42,0.11,0.85,0.16,1.27,0.17"/>
		<path class="st5" d="M10.9,55.08c-2.59,0.03-4.49-2.62-3.79-5.3c2.08-7.98,10.25-22.22,41.96-23.74c0,0,35.89-1.39,43.72,22.53
			c0.91,2.79-0.97,6.06-3.71,6.09L10.9,55.08z"/>
		<path class="st5" d="M89.91,63.49c1.24,0.77,1.91,1.58,1.91,2.43c0,4.45-18.52,8.06-41.37,8.06S9.08,70.37,9.08,65.91
			c0-0.74,0.51-1.46,1.47-2.14"/>
		<line class="st5" x1="58.54" y1="59.33" x2="42.55" y2="59.33"/>
		<line class="st10" x1="35.45" y1="27.8" x2="41.52" y2="35.75"/>
		<line class="st10" x1="46.6" y1="26.39" x2="52.66" y2="34.33"/>
		<line class="st10" x1="59.11" y1="26.69" x2="65.17" y2="34.64"/>
		<polyline class="st5" points="21.48,55.08 34.77,67.48 46.61,55.08 		"/>
		<polyline class="st5" points="53.88,55 67.3,67.48 79.59,54.72 		"/>
		<path class="st5" d="M13.81,55.08c-2.58,2.09,0,4.24,0,4.24h12.22"/>
		<path class="st5" d="M84.08,54.87c0,0,2.58,2.15,0,4.24h-8.72"/>
	</g>
	<rect y="0" class="st32" width="100" height="100"/>
</g>
</svg>
