<?xml version="1.0" encoding="utf-8"?>
<!-- Generator: Adobe Illustrator 25.2.3, SVG Export Plug-In . SVG Version: 6.00 Build 0)  -->
<svg version="1.1" xmlns="http://www.w3.org/2000/svg" xmlns:xlink="http://www.w3.org/1999/xlink" x="0px" y="0px"
	 viewBox="0 0 100 100" style="enable-background:new 0 0 100 100;" xml:space="preserve">
<style type="text/css">
	.st0{fill:#EAEDF4;}
	.st1{fill:#95BB7B;}
	.st2{fill:#C54756;}
	.st3{fill:#FFFFFF;}
	.st4{fill:#B5B5B5;stroke:#000000;stroke-width:1.1359;stroke-linecap:round;stroke-linejoin:round;stroke-miterlimit:10;}
	.st5{fill:none;stroke:#000000;stroke-width:1.1359;stroke-linecap:round;stroke-linejoin:round;stroke-miterlimit:10;}
	.st6{fill:#DDC39E;}
	.st7{fill:#205B52;}
	.st8{fill:#FBD586;}
	.st9{fill:#F9E9CD;}
	.st10{fill:none;stroke:#141518;stroke-width:1.2449;stroke-linecap:round;stroke-linejoin:round;stroke-miterlimit:10;}
	.st11{fill:#C3E0AA;}
	.st12{fill:#E2B360;}
	.st13{fill:#184D47;}
	.st14{fill:#E2E2E2;stroke:#000000;stroke-width:1.1359;stroke-linecap:round;stroke-linejoin:round;stroke-miterlimit:10;}
	.st15{fill:#E2E2E2;}
	.st16{fill:#B5B5B5;}
	.st17{fill:#E2E2E2;stroke:#141518;stroke-width:1.1511;stroke-linecap:round;stroke-linejoin:round;stroke-miterlimit:10;}
	.st18{fill:#141518;stroke:#000000;stroke-miterlimit:10;}
	.st19{fill:#51442E;}
	.st20{fill:#FBD586;stroke:#000000;stroke-width:1.1359;stroke-linecap:round;stroke-linejoin:round;stroke-miterlimit:10;}
	.st21{fill:#95BB7B;stroke:#000000;stroke-width:1.1359;stroke-miterlimit:10;}
	.st22{fill:#EAEAEA;stroke:#000000;stroke-width:1.1359;stroke-miterlimit:10;}
	.st23{fill:none;stroke:#141518;stroke-width:1.1359;stroke-linecap:round;stroke-linejoin:round;stroke-miterlimit:10;}
	.st24{fill:#184D47;stroke:#000000;stroke-width:1.1359;stroke-linecap:round;stroke-linejoin:round;stroke-miterlimit:10;}
	.st25{fill:#933449;}
	.st26{fill:#EAEAEA;stroke:#000000;stroke-width:1.1359;stroke-linecap:round;stroke-linejoin:round;stroke-miterlimit:10;}
	.st27{fill:#F7DDAD;}
	.st28{fill:#B7DB97;stroke:#000000;stroke-width:1.1359;stroke-linecap:round;stroke-linejoin:round;stroke-miterlimit:10;}
	.st29{fill:#C54756;stroke:#000000;stroke-width:1.1359;stroke-linecap:round;stroke-linejoin:round;stroke-miterlimit:10;}
	.st30{fill:#E56782;}
	.st31{fill:#FFFFFF;stroke:#000000;stroke-width:1.1359;stroke-linecap:round;stroke-linejoin:round;stroke-miterlimit:10;}
	.st32{fill:none;}
</style>
<g id="Layer_2">
	<path class="st0" d="M63.49,20.78c9.94,3.69,19.23,11.01,25.02,19.89c9.77,15.01,3.3,41.89-13.65,49.21
		c-3.03,1.31-6.38,2.24-9.61,1.55c-4.06-0.86-7.18-4.12-9.45-7.59c-2.27-3.47-3.96-7.33-6.62-10.52
		c-5.32-6.37-13.2-9.61-20.72-12.59c-6.55-2.6-16.33-5.18-20.67-11.17c-2.87-3.96-2.52-9.47-0.81-14.06
		c3.8-10.19,14.33-16.61,24.21-18.4C42.54,15.07,52.35,16.64,63.49,20.78z"/>
</g>
<g id="Layer_1">
	<g>
		<polyline class="st11" points="13.52,56.39 58.34,29.25 61.16,28.98 65.43,30.16 72.16,33.18 76.46,38.11 78.72,43.47 
			78.32,46.97 13.52,56.39 		"/>
		<circle class="st2" cx="52.74" cy="36.83" r="6.03"/>
		<polygon class="st8" points="59.59,28.49 63.83,25.42 69.56,26.34 75.88,28.08 81.11,31.43 84.49,35.55 86.37,39.69 87.38,44.47 
			87.38,71.94 85.88,77.62 81.99,81.33 77.31,83.11 70.17,83.11 12.55,82.89 12.55,74.73 74.05,74.66 76.43,74.05 78.33,71.6 
			78.72,65.42 78.67,45.98 77.04,38.43 72.69,33.74 67.39,30.89 		"/>
		<path class="st3" d="M51.47,32.71c0,0-3.09,0.56-2.64,4.87h1.3c0,0-0.47-3.48,1.94-4.08L51.47,32.71z"/>
		<polygon class="st12" points="78.72,46.91 87.38,45.59 87.45,72.86 85.88,77.62 83.08,80.64 79.35,82.73 73.05,83.11 12.55,82.89 
			12.55,74.73 74.05,74.66 76.43,74.05 78.33,71.6 78.72,67.7 		"/>
		<polyline class="st1" points="13.52,74.73 74.01,74.73 76.43,74.05 78.33,71.6 78.68,63.71 78.74,47.19 73.67,47.68 12.55,57.29 
			12.89,74.7 13.52,74.73 		"/>
		<path class="st3" d="M78.64,61.59c-3.56,2.7-8.3,3.78-12.68,2.88c-2.26-0.47-4.43-1.43-6.74-1.53c-4.32-0.19-8.14,2.63-12.27,3.9
			c-2.03,0.62-4.18,0.87-6.3,0.73c-4.85-0.32-9.61-2.64-14.39-1.79c-2.33,0.41-4.46,1.55-6.71,2.3s-4.83,1.08-6.89-0.07v-4.35
			c2.07,1.15,4.65,0.82,6.89,0.07s4.38-1.89,6.71-2.3c4.79-0.84,9.54,1.48,14.39,1.79c2.12,0.14,4.27-0.11,6.3-0.73
			c4.14-1.27,7.95-4.09,12.27-3.9c2.31,0.1,4.48,1.07,6.74,1.53c4.38,0.9,9.12-0.17,12.68-2.88V61.59z"/>
		<g>
			<path class="st5" d="M55.4,31.03L63.7,26c23.86-0.47,23.75,19.58,23.75,19.58l-74.89,11.4L46.37,36.5"/>
			<path class="st5" d="M12.55,56.98v26.13h62.25c0,0,11.45,0.4,12.64-10.37V45.58"/>
			<path class="st5" d="M59.08,28.8c21.38,2.74,19.6,18.12,19.6,18.12v23.14c0,2.58-2.09,4.67-4.67,4.67H12.55"/>
			<circle class="st5" cx="52.74" cy="36.83" r="6.39"/>
			<path class="st5" d="M52.74,30.44c0,0-1.74-8.02,4.33-13.55"/>
		</g>
	</g>
	<rect y="0" class="st32" width="100" height="100"/>
</g>
</svg>
