<?xml version="1.0" encoding="utf-8"?>
<!-- Generator: Adobe Illustrator 25.2.3, SVG Export Plug-In . SVG Version: 6.00 Build 0)  -->
<svg version="1.1" xmlns="http://www.w3.org/2000/svg" xmlns:xlink="http://www.w3.org/1999/xlink" x="0px" y="0px"
	 viewBox="0 0 100 100" style="enable-background:new 0 0 100 100;" xml:space="preserve">
<style type="text/css">
	.st0{fill:#EAEDF4;}
	.st1{fill:#95BB7B;}
	.st2{fill:#C54756;}
	.st3{fill:#FFFFFF;}
	.st4{fill:#B5B5B5;stroke:#000000;stroke-width:1.1359;stroke-linecap:round;stroke-linejoin:round;stroke-miterlimit:10;}
	.st5{fill:none;stroke:#000000;stroke-width:1.1359;stroke-linecap:round;stroke-linejoin:round;stroke-miterlimit:10;}
	.st6{fill:#DDC39E;}
	.st7{fill:#205B52;}
	.st8{fill:#FBD586;}
	.st9{fill:#F9E9CD;}
	.st10{fill:none;stroke:#141518;stroke-width:1.2449;stroke-linecap:round;stroke-linejoin:round;stroke-miterlimit:10;}
	.st11{fill:#C3E0AA;}
	.st12{fill:#E2B360;}
	.st13{fill:#184D47;}
	.st14{fill:#E2E2E2;stroke:#000000;stroke-width:1.1359;stroke-linecap:round;stroke-linejoin:round;stroke-miterlimit:10;}
	.st15{fill:#E2E2E2;}
	.st16{fill:#B5B5B5;}
	.st17{fill:#E2E2E2;stroke:#141518;stroke-width:1.1511;stroke-linecap:round;stroke-linejoin:round;stroke-miterlimit:10;}
	.st18{fill:#141518;stroke:#000000;stroke-miterlimit:10;}
	.st19{fill:#51442E;}
	.st20{fill:#FBD586;stroke:#000000;stroke-width:1.1359;stroke-linecap:round;stroke-linejoin:round;stroke-miterlimit:10;}
	.st21{fill:#95BB7B;stroke:#000000;stroke-width:1.1359;stroke-miterlimit:10;}
	.st22{fill:#EAEAEA;stroke:#000000;stroke-width:1.1359;stroke-miterlimit:10;}
	.st23{fill:none;stroke:#141518;stroke-width:1.1359;stroke-linecap:round;stroke-linejoin:round;stroke-miterlimit:10;}
	.st24{fill:#184D47;stroke:#000000;stroke-width:1.1359;stroke-linecap:round;stroke-linejoin:round;stroke-miterlimit:10;}
	.st25{fill:#933449;}
	.st26{fill:#EAEAEA;stroke:#000000;stroke-width:1.1359;stroke-linecap:round;stroke-linejoin:round;stroke-miterlimit:10;}
	.st27{fill:#F7DDAD;}
	.st28{fill:#B7DB97;stroke:#000000;stroke-width:1.1359;stroke-linecap:round;stroke-linejoin:round;stroke-miterlimit:10;}
	.st29{fill:#C54756;stroke:#000000;stroke-width:1.1359;stroke-linecap:round;stroke-linejoin:round;stroke-miterlimit:10;}
	.st30{fill:#E56782;}
	.st31{fill:#FFFFFF;stroke:#000000;stroke-width:1.1359;stroke-linecap:round;stroke-linejoin:round;stroke-miterlimit:10;}
	.st32{fill:none;}
</style>
<g id="Layer_2">
	<path class="st0" d="M42.55,83.41c-10.4-2.06-20.74-7.8-27.87-15.66C2.65,54.49,4.76,26.91,20.33,16.99
		c2.78-1.77,5.95-3.23,9.24-3.06c4.14,0.2,7.75,2.92,10.54,5.99s5.08,6.61,8.21,9.33c6.27,5.44,14.56,7.39,22.45,9.13
		c6.88,1.52,16.95,2.52,22.19,7.74c3.47,3.45,4,8.95,3.04,13.75C93.88,70.52,84.5,78.54,75.03,81.88
		C64.15,85.71,54.22,85.72,42.55,83.41z"/>
</g>
<g id="Layer_1">
	<g>
		<path class="st4" d="M47.41,32.36V27.5c0-1.43,1.16-2.59,2.59-2.59h0c1.43,0,2.59,1.16,2.59,2.59v4.86"/>
		<path class="st14" d="M17.47,63.37c0-17.16,14.56-31.08,32.53-31.08s32.53,13.91,32.53,31.08"/>
		<path class="st4" d="M84.55,75.09H15.45c-3.23,0-5.84-2.62-5.84-5.84v0c0-3.23,2.62-5.84,5.84-5.84h69.11
			c3.23,0,5.84,2.62,5.84,5.84v0C90.4,72.47,87.78,75.09,84.55,75.09z"/>
		<path class="st3" d="M36.74,43.21c-3.7,2.9-8.95,8.19-10.11,15.51l-3.2-0.74c0,0,2.05-10.29,10.8-16.79"/>
		<path class="st3" d="M35.45,40.29c1.06-0.72,2.21-1.39,3.46-1.98l2.01,2.01c0,0-1.25,0.67-3,1.97"/>
	</g>
	<rect y="0" class="st32" width="100" height="100"/>
</g>
</svg>
