<?xml version="1.0" encoding="utf-8"?>
<!-- Generator: Adobe Illustrator 25.2.3, SVG Export Plug-In . SVG Version: 6.00 Build 0)  -->
<svg version="1.1" xmlns="http://www.w3.org/2000/svg" xmlns:xlink="http://www.w3.org/1999/xlink" x="0px" y="0px"
	 viewBox="0 0 100 100" style="enable-background:new 0 0 100 100;" xml:space="preserve">
<style type="text/css">
	.st0{fill:#EAEDF4;}
	.st1{fill:#95BB7B;}
	.st2{fill:#C54756;}
	.st3{fill:#FFFFFF;}
	.st4{fill:#B5B5B5;stroke:#000000;stroke-width:1.1359;stroke-linecap:round;stroke-linejoin:round;stroke-miterlimit:10;}
	.st5{fill:none;stroke:#000000;stroke-width:1.1359;stroke-linecap:round;stroke-linejoin:round;stroke-miterlimit:10;}
	.st6{fill:#DDC39E;}
	.st7{fill:#205B52;}
	.st8{fill:#FBD586;}
	.st9{fill:#F9E9CD;}
	.st10{fill:none;stroke:#141518;stroke-width:1.2449;stroke-linecap:round;stroke-linejoin:round;stroke-miterlimit:10;}
	.st11{fill:#C3E0AA;}
	.st12{fill:#E2B360;}
	.st13{fill:#184D47;}
	.st14{fill:#E2E2E2;stroke:#000000;stroke-width:1.1359;stroke-linecap:round;stroke-linejoin:round;stroke-miterlimit:10;}
	.st15{fill:#E2E2E2;}
	.st16{fill:#B5B5B5;}
	.st17{fill:#E2E2E2;stroke:#141518;stroke-width:1.1511;stroke-linecap:round;stroke-linejoin:round;stroke-miterlimit:10;}
	.st18{fill:#141518;stroke:#000000;stroke-miterlimit:10;}
	.st19{fill:#51442E;}
	.st20{fill:#FBD586;stroke:#000000;stroke-width:1.1359;stroke-linecap:round;stroke-linejoin:round;stroke-miterlimit:10;}
	.st21{fill:#95BB7B;stroke:#000000;stroke-width:1.1359;stroke-miterlimit:10;}
	.st22{fill:#EAEAEA;stroke:#000000;stroke-width:1.1359;stroke-miterlimit:10;}
	.st23{fill:none;stroke:#141518;stroke-width:1.1359;stroke-linecap:round;stroke-linejoin:round;stroke-miterlimit:10;}
	.st24{fill:#184D47;stroke:#000000;stroke-width:1.1359;stroke-linecap:round;stroke-linejoin:round;stroke-miterlimit:10;}
	.st25{fill:#933449;}
	.st26{fill:#EAEAEA;stroke:#000000;stroke-width:1.1359;stroke-linecap:round;stroke-linejoin:round;stroke-miterlimit:10;}
	.st27{fill:#F7DDAD;}
	.st28{fill:#B7DB97;stroke:#000000;stroke-width:1.1359;stroke-linecap:round;stroke-linejoin:round;stroke-miterlimit:10;}
	.st29{fill:#C54756;stroke:#000000;stroke-width:1.1359;stroke-linecap:round;stroke-linejoin:round;stroke-miterlimit:10;}
	.st30{fill:#E56782;}
	.st31{fill:#FFFFFF;stroke:#000000;stroke-width:1.1359;stroke-linecap:round;stroke-linejoin:round;stroke-miterlimit:10;}
	.st32{fill:none;}
</style>
<g id="Layer_2">
	<path class="st0" d="M73.7,72.27c-6.41,8.44-16.11,15.22-26.29,18.19C30.21,95.46,6.35,81.48,4.26,63.13
		c-0.37-3.28-0.29-6.76,1.3-9.65c2-3.63,6.02-5.68,10-6.84s8.17-1.67,11.98-3.29c7.63-3.25,13.02-9.85,18.05-16.18
		c4.38-5.52,9.69-14.13,16.68-16.55c4.62-1.6,9.8,0.33,13.69,3.29c8.65,6.59,11.75,18.53,10.6,28.5
		C85.24,53.86,80.89,62.8,73.7,72.27z"/>
</g>
<g id="Layer_1">
	<g>
		<polygon class="st12" points="18.82,63.43 19.2,69.91 22.16,74.97 27.22,78.17 71.24,78 75.96,76.01 79.46,71.77 80.53,66.12 
			80.53,62.73 18.82,62.6 		"/>
		<polygon class="st19" points="18.82,55.33 80.53,55.36 82.54,56.6 83.06,59.39 82.22,61.87 80.12,62.76 18.82,62.85 16.8,61.13 
			16.58,57.58 		"/>
		<polygon class="st2" points="18.82,49.7 80.53,49.72 82.54,50.65 83.06,52.74 82.22,54.6 80.12,55.26 18.82,55.33 16.8,54.04 
			16.58,51.38 		"/>
		<path class="st5" d="M80.53,62.73v4.28c0,6.16-4.99,11.15-11.15,11.15H29.97c-6.16,0-11.15-4.99-11.15-11.15v-4.28H80.53z"/>
		<path class="st5" d="M80.12,62.76H19.43c-1.62,0-2.94-1.32-2.94-2.94v-1.55c0-1.62,1.32-2.94,2.94-2.94h60.69
			c1.62,0,2.94,1.32,2.94,2.94v1.55C83.06,61.44,81.74,62.76,80.12,62.76z"/>
		<path class="st5" d="M80.52,55.26H19.04c-1.41,0-2.54-1.14-2.54-2.54v-0.47c0-1.41,1.14-2.54,2.54-2.54h61.48
			c1.41,0,2.54,1.14,2.54,2.54v0.47C83.06,54.12,81.92,55.26,80.52,55.26z"/>
		<polygon class="st20" points="48.77,55.58 60.42,66.54 71.14,55.31 		"/>
		<polygon class="st3" points="52.18,56.2 56.59,56.15 62.4,61.55 60.23,63.71 		"/>
		<path class="st21" d="M16.73,48.6c0.5,1.45,1.98,2.38,3.48,2.66c1.5,0.28,3.05,0.02,4.56-0.25s3.05-0.54,4.56-0.3
			c2.06,0.33,3.87,1.61,5.93,1.96c4.7,0.8,9.24-3.36,13.93-2.43c1.99,0.39,3.75,1.68,5.77,1.84c1.97,0.16,3.85-0.79,5.78-1.24
			c1.92-0.44,3.95-0.39,5.84,0.15c2.63,0.75,5.17,2.45,7.85,1.95c2.12-0.39,3.85-2.11,5.99-2.34c0.97-0.11,2.11,0.04,2.75-0.7
			c0.78-0.89,0.14-2.3-0.7-3.13c-0.64-0.62-1.38-1.13-2.14-1.59c-6.09-3.68-13.46-4.41-20.55-5.05c-7.09-0.64-14.27-1.28-21.29-0.15
			c-2.92,0.47-5.78,1.23-8.68,1.76c-2.91,0.53-5.91,0.84-8.68,1.91C19.1,44.44,15.78,45.84,16.73,48.6z"/>
		<polygon class="st8" points="18.82,45.34 80.53,45.34 79.24,38.98 75.09,32.47 66.14,25.51 57.03,22.23 46.02,22.23 40,22.92 
			31.65,26.64 25.63,31.25 20.79,37.63 		"/>
		<path class="st5" d="M80.53,45.34c0-12.98-16.01-23.51-27.55-23.51h-5.99c-11.54,0-28.17,10.52-28.17,23.51H80.53z"/>
		<circle cx="30.2" cy="36.18" r="1.45"/>
		<circle cx="64.31" cy="31.25" r="0.85"/>
		<circle cx="45.21" cy="27.49" r="0.85"/>
		<circle cx="52.34" cy="36.94" r="1.5"/>
		<circle cx="39.36" cy="39.85" r="0.87"/>
		<circle cx="71.24" cy="39.84" r="1.5"/>
	</g>
	<rect y="0" class="st32" width="100" height="100"/>
</g>
</svg>
