<?xml version="1.0" encoding="utf-8"?>
<!-- Generator: Adobe Illustrator 25.2.3, SVG Export Plug-In . SVG Version: 6.00 Build 0)  -->
<svg version="1.1" xmlns="http://www.w3.org/2000/svg" xmlns:xlink="http://www.w3.org/1999/xlink" x="0px" y="0px"
	 viewBox="0 0 100 100" style="enable-background:new 0 0 100 100;" xml:space="preserve">
<style type="text/css">
	.st0{fill:#EAEDF4;}
	.st1{fill:#95BB7B;}
	.st2{fill:#C54756;}
	.st3{fill:#FFFFFF;}
	.st4{fill:#B5B5B5;stroke:#000000;stroke-width:1.1359;stroke-linecap:round;stroke-linejoin:round;stroke-miterlimit:10;}
	.st5{fill:none;stroke:#000000;stroke-width:1.1359;stroke-linecap:round;stroke-linejoin:round;stroke-miterlimit:10;}
	.st6{fill:#DDC39E;}
	.st7{fill:#205B52;}
	.st8{fill:#FBD586;}
	.st9{fill:#F9E9CD;}
	.st10{fill:none;stroke:#141518;stroke-width:1.2449;stroke-linecap:round;stroke-linejoin:round;stroke-miterlimit:10;}
	.st11{fill:#C3E0AA;}
	.st12{fill:#E2B360;}
	.st13{fill:#184D47;}
	.st14{fill:#E2E2E2;stroke:#000000;stroke-width:1.1359;stroke-linecap:round;stroke-linejoin:round;stroke-miterlimit:10;}
	.st15{fill:#E2E2E2;}
	.st16{fill:#B5B5B5;}
	.st17{fill:#E2E2E2;stroke:#141518;stroke-width:1.1511;stroke-linecap:round;stroke-linejoin:round;stroke-miterlimit:10;}
	.st18{fill:#141518;stroke:#000000;stroke-miterlimit:10;}
	.st19{fill:#51442E;}
	.st20{fill:#FBD586;stroke:#000000;stroke-width:1.1359;stroke-linecap:round;stroke-linejoin:round;stroke-miterlimit:10;}
	.st21{fill:#95BB7B;stroke:#000000;stroke-width:1.1359;stroke-miterlimit:10;}
	.st22{fill:#EAEAEA;stroke:#000000;stroke-width:1.1359;stroke-miterlimit:10;}
	.st23{fill:none;stroke:#141518;stroke-width:1.1359;stroke-linecap:round;stroke-linejoin:round;stroke-miterlimit:10;}
	.st24{fill:#184D47;stroke:#000000;stroke-width:1.1359;stroke-linecap:round;stroke-linejoin:round;stroke-miterlimit:10;}
	.st25{fill:#933449;}
	.st26{fill:#EAEAEA;stroke:#000000;stroke-width:1.1359;stroke-linecap:round;stroke-linejoin:round;stroke-miterlimit:10;}
	.st27{fill:#F7DDAD;}
	.st28{fill:#B7DB97;stroke:#000000;stroke-width:1.1359;stroke-linecap:round;stroke-linejoin:round;stroke-miterlimit:10;}
	.st29{fill:#C54756;stroke:#000000;stroke-width:1.1359;stroke-linecap:round;stroke-linejoin:round;stroke-miterlimit:10;}
	.st30{fill:#E56782;}
	.st31{fill:#FFFFFF;stroke:#000000;stroke-width:1.1359;stroke-linecap:round;stroke-linejoin:round;stroke-miterlimit:10;}
	.st32{fill:none;}
</style>
<g id="Layer_2">
	<path class="st0" d="M52.63,86.76c-10.49,1.53-22.16-0.42-31.5-5.44c-15.77-8.48-23-35.17-11.64-49.73
		c2.03-2.6,4.53-5.03,7.69-5.98c3.97-1.19,8.28,0.17,11.93,2.12s7,4.53,10.86,6.05c7.72,3.03,16.19,2.1,24.21,1.1
		c7-0.87,16.81-3.29,23.5-0.12c4.42,2.09,6.76,7.1,7.46,11.94c1.56,10.76-4.6,21.45-12.41,27.76C73.76,81.71,64.4,85.04,52.63,86.76
		z"/>
</g>
<g id="Layer_1">
	<g>
		<path class="st22" d="M47.25,15.48c-0.1-0.16-0.19-0.32-0.28-0.49c-0.61-1.14-2-3.17-0.97-4.37c0.5-0.59,1.25-0.89,1.89-1.32
			c0.92-0.61,1.65-1.47,2.54-2.12s2.07-1.08,3.1-0.67c1.01,0.41,1.55,1.49,2.38,2.18c1.16,0.96,2.8,1.09,4.12,1.82
			c2.24,1.22,3.26,4.27,2.21,6.59c-0.41,0.9-1.07,1.67-1.55,2.53c-1.21,2.18-1.2,4.81-0.93,7.29c0.13,1.19,0.31,2.43-0.1,3.56
			c-0.41,1.13-1.63,2.06-2.77,1.69c-0.38-0.12-0.69-0.37-0.95-0.67"/>
		<polyline class="st3" points="44.29,26.91 45.11,18.21 44.59,14.99 47.25,15.48 52.17,15.61 55.07,14.99 54.55,18.26 55.44,27.59 
			50.18,28.51 44.67,27.75 44.29,26.91 		"/>
		<polyline class="st8" points="44.22,28.05 55.82,28.05 55.85,31.58 56.19,35.07 55.72,38.71 56.63,41.81 60.67,46.65 61.64,49.55 
			61.75,62.78 61.71,85.27 62.19,87.95 62.19,90.13 60.06,92.39 51.47,93.64 42.27,92.95 39.11,91.81 37.4,89.24 37.74,87.14 
			37.93,84.02 37.73,56.43 37.91,50.79 38.87,47.23 40.6,44.88 43.18,41.5 43.72,38.71 43.55,34.19 44.11,28.64 		"/>
		<polygon class="st12" points="39.62,87.68 44.16,88.53 51.81,88.9 58.01,88.09 62.13,87.01 62.36,88.9 60.83,91.54 58.1,92.83 
			52.42,93.33 47.46,93.41 40.88,92.67 37.99,90.62 37.35,88.35 37.8,87.27 		"/>
		<path class="st23" d="M44.22,27.59c0,0,4.95,2.08,11.23,0"/>
		<path class="st24" d="M61.6,57.35c0,0-5.16,1.33-10.48,0.3v23.07c0,0,5.32,1.09,10.63-0.54"/>
		<path class="st5" d="M37.74,87.14c0,0,11.21,3.96,24.01,0"/>
		<path class="st3" d="M40.99,85.22V53.31c0,0-0.32-6.74,5.77-7.7c0,0-2.38,3.28-2.41,8.02v31.59H40.99z"/>
		<path class="st5" d="M44.78,14.29c-0.24,0.64-0.4,1.55,0.01,2.49c0.3,0.69,0.38,1.44,0.31,2.17l-1.58,15.56
			c-0.09,0.86-0.07,1.73,0.06,2.58c0.08,0.53,0.16,1.22,0.14,1.97c-0.03,1.77-0.84,3.46-2.2,4.83c-0.78,0.78-1.87,2-2.65,3.34
			c-0.65,1.11-0.97,2.33-0.97,3.56v32.84c0,0.04,0,0.07,0,0.11c0.03,0.37,0.2,2.67-0.35,3.93c-0.04,0.09-0.07,0.19-0.1,0.3
			c-0.43,2.21,1.28,4.31,3.91,4.82c1.85,0.36,4.51,0.67,8.1,0.61c0.12,0,0.59,0,0.71,0c3.58,0.06,6.25-0.25,8.1-0.61
			c2.63-0.51,4.34-2.62,3.91-4.84c-0.02-0.1-0.05-0.19-0.09-0.28c-0.55-1.26-0.38-3.56-0.35-3.93c0-0.04,0-0.07,0-0.11V50.79
			c0-1.23-0.32-2.45-0.97-3.56c-0.78-1.34-1.87-2.55-2.65-3.34c-1.36-1.37-2.16-3.06-2.2-4.83c-0.01-0.75,0.06-1.44,0.14-1.97
			c0.14-0.86,0.15-1.72,0.06-2.58l-1.58-15.56c-0.07-0.73,0.01-1.48,0.31-2.17c0.41-0.93,0.32-1.69,0.09-2.34"/>
		<path class="st5" d="M54.96,14.36c-0.26,0.7-2.46,1.25-5.13,1.25c-2.85,0-5.16-0.62-5.16-1.4c0-0.37,0.35-0.65,1.2-0.89"/>
	</g>
	<rect y="0" class="st32" width="100" height="100"/>
</g>
</svg>
