<?xml version="1.0" encoding="utf-8"?>
<!-- Generator: Adobe Illustrator 25.2.3, SVG Export Plug-In . SVG Version: 6.00 Build 0)  -->
<svg version="1.1" xmlns="http://www.w3.org/2000/svg" xmlns:xlink="http://www.w3.org/1999/xlink" x="0px" y="0px"
	 viewBox="0 0 100 100" style="enable-background:new 0 0 100 100;" xml:space="preserve">
<style type="text/css">
	.st0{fill:#EAEDF4;}
	.st1{fill:#95BB7B;}
	.st2{fill:#C54756;}
	.st3{fill:#FFFFFF;}
	.st4{fill:#B5B5B5;stroke:#000000;stroke-width:1.1359;stroke-linecap:round;stroke-linejoin:round;stroke-miterlimit:10;}
	.st5{fill:none;stroke:#000000;stroke-width:1.1359;stroke-linecap:round;stroke-linejoin:round;stroke-miterlimit:10;}
	.st6{fill:#DDC39E;}
	.st7{fill:#205B52;}
	.st8{fill:#FBD586;}
	.st9{fill:#F9E9CD;}
	.st10{fill:none;stroke:#141518;stroke-width:1.2449;stroke-linecap:round;stroke-linejoin:round;stroke-miterlimit:10;}
	.st11{fill:#C3E0AA;}
	.st12{fill:#E2B360;}
	.st13{fill:#184D47;}
	.st14{fill:#E2E2E2;stroke:#000000;stroke-width:1.1359;stroke-linecap:round;stroke-linejoin:round;stroke-miterlimit:10;}
	.st15{fill:#E2E2E2;}
	.st16{fill:#B5B5B5;}
	.st17{fill:#E2E2E2;stroke:#141518;stroke-width:1.1511;stroke-linecap:round;stroke-linejoin:round;stroke-miterlimit:10;}
	.st18{fill:#141518;stroke:#000000;stroke-miterlimit:10;}
	.st19{fill:#51442E;}
	.st20{fill:#FBD586;stroke:#000000;stroke-width:1.1359;stroke-linecap:round;stroke-linejoin:round;stroke-miterlimit:10;}
	.st21{fill:#95BB7B;stroke:#000000;stroke-width:1.1359;stroke-miterlimit:10;}
	.st22{fill:#EAEAEA;stroke:#000000;stroke-width:1.1359;stroke-miterlimit:10;}
	.st23{fill:none;stroke:#141518;stroke-width:1.1359;stroke-linecap:round;stroke-linejoin:round;stroke-miterlimit:10;}
	.st24{fill:#184D47;stroke:#000000;stroke-width:1.1359;stroke-linecap:round;stroke-linejoin:round;stroke-miterlimit:10;}
	.st25{fill:#933449;}
	.st26{fill:#EAEAEA;stroke:#000000;stroke-width:1.1359;stroke-linecap:round;stroke-linejoin:round;stroke-miterlimit:10;}
	.st27{fill:#F7DDAD;}
	.st28{fill:#B7DB97;stroke:#000000;stroke-width:1.1359;stroke-linecap:round;stroke-linejoin:round;stroke-miterlimit:10;}
	.st29{fill:#C54756;stroke:#000000;stroke-width:1.1359;stroke-linecap:round;stroke-linejoin:round;stroke-miterlimit:10;}
	.st30{fill:#E56782;}
	.st31{fill:#FFFFFF;stroke:#000000;stroke-width:1.1359;stroke-linecap:round;stroke-linejoin:round;stroke-miterlimit:10;}
	.st32{fill:none;}
</style>
<g id="Layer_2">
	<path class="st0" d="M23.54,31.22c6.41-8.44,16.1-15.23,26.28-18.2c17.19-5.01,41.06,8.96,43.16,27.3c0.38,3.28,0.3,6.76-1.29,9.65
		c-2,3.63-6.02,5.68-10,6.85c-3.98,1.17-8.17,1.67-11.98,3.3c-7.63,3.25-13.02,9.85-18.04,16.19c-4.38,5.52-9.68,14.13-16.67,16.56
		c-4.62,1.61-9.8-0.33-13.69-3.29c-8.65-6.58-11.76-18.53-10.61-28.49C12.01,49.63,16.35,40.7,23.54,31.22z"/>
</g>
<g id="Layer_1">
	<g>
		<path class="st2" d="M44.1,45.34H18.14c-1.67,0-3.04,1.34-3.06,3.01c-0.06,6.83,1.7,23.44,19.53,30.25
			c2.58,0.98,5.33,1.46,8.09,1.46h13.82c2.47,0,4.92-0.38,7.26-1.16c7.48-2.48,21.31-9.89,21.15-30.81
			c-0.01-1.52-1.24-2.74-2.76-2.74h-9.17"/>
		<polygon class="st1" points="22.11,45 21.16,43.33 18.78,40.87 17.38,38.9 17.63,36.27 20.16,33.77 22.11,32.24 23,29.28 
			23.78,26.48 25.84,25.4 28.89,26.03 32.68,28.55 35.52,29.67 38.17,29.29 41.14,28.42 44.1,29.19 45.8,31.08 45.8,34.55 
			45.68,36.41 44.1,39.32 43.44,43.23 43.55,45.31 		"/>
		<polygon class="st1" points="79.72,45.01 81.7,42.66 81.36,39.35 79.12,36.27 78.26,34.31 78.78,31.04 77.98,28.36 75.58,27.23 
			72.99,27.23 70.41,28.36 66.69,28.65 62.2,28.02 59.27,28.32 57.61,30.04 56.04,32.24 53.67,33.28 54.77,36.41 55.47,40.17 
			55.15,45.01 58.58,45.31 63.77,44.29 68.34,44.14 72.19,45 74.89,45.34 		"/>
		<polygon class="st13" points="43.55,45.31 43.29,42.42 45.11,37.41 48,33.8 51.96,31.84 53.98,34.16 55.16,37.73 55.53,42.27 
			55.15,45.01 		"/>
		<polygon class="st13" points="59.75,45.34 60,48.59 61.5,52.71 64.53,57.05 68.48,54.24 71.87,48.61 72.99,45.31 67.69,43.9 
			62.43,44.58 		"/>
		<path class="st3" d="M20.78,53.72c0,0,1.02,13.73,13.15,19.68l4.01-0.19c0,0-13.08-5.62-14.16-19.64L20.78,53.72z"/>
		<path class="st5" d="M44.1,45.34H18.14c-1.67,0-3.04,1.34-3.06,3.01c-0.06,6.83,1.7,23.44,19.53,30.25
			c2.58,0.98,5.33,1.46,8.09,1.46h13.82c2.47,0,4.92-0.38,7.26-1.16c7.48-2.48,21.31-9.89,21.15-30.81
			c-0.01-1.52-1.24-2.74-2.76-2.74h-9.17"/>
		<line class="st5" x1="59.81" y1="45.34" x2="44.1" y2="45.34"/>
		<path class="st5" d="M22.2,45.31c-0.17-0.76-0.53-1.47-1.03-1.98c-1.19-1.19-2.76-2.09-3.5-3.6c-0.68-1.4-0.47-3.2,0.53-4.4
			c1.28-1.53,3.63-2.09,4.44-3.91c0.62-1.41,0.09-3.17,0.84-4.52c0.78-1.38,2.67-1.77,4.2-1.35c1.53,0.42,2.8,1.45,4.09,2.37
			s2.74,1.78,4.32,1.77c1.98-0.01,3.77-1.38,5.75-1.32c1.87,0.05,3.6,1.56,3.91,3.41c0.08,0.49,0.07,0.98,0.01,1.48
			c-0.15,1.21-0.31,2.12-0.28,3.36"/>
		<path class="st5" d="M78.82,45.31c1.97-1.55,3.63-3.39,2.54-5.96c-0.78-1.84-2.86-3.06-3.1-5.04c-0.18-1.53,0.84-3.06,0.51-4.57
			c-0.34-1.55-2.04-2.47-3.62-2.52c-1.65-0.05-3.2,0.62-4.75,1.13c-2.84,0.93-5.63-0.19-8.5-0.36c-1.14-0.07-2.45-0.05-3.33,0.79
			c-0.85,0.8-1.4,2.17-2.21,3.12c-0.71,0.83-1.63,1.24-2.7,1.38"/>
		<path class="st5" d="M29.36,35.33c0,0,5.82,4.84,7.62,9.68"/>
		<path class="st5" d="M59.81,45.31c0,0-0.97,5.3,4.71,11.74c0,0,5.55-1.35,8.46-11.74C72.99,45.31,67.44,42.67,59.81,45.31z"/>
		<path class="st5" d="M55.15,45.01c0.69-2.91,0.76-8.88-2.83-13.17c0,0-8.62,0.8-9.04,13.5"/>
		<path class="st5" d="M66.37,44.58c0,0-1.57,2.02-1.23,7.38"/>
		<path class="st5" d="M49.33,45c0,0,1.66-4.25,1.04-7.6"/>
		<path class="st5" d="M71.28,36.41c0,0-8.63,1.97-12.72,8.93"/>
	</g>
	<rect y="0" class="st32" width="100" height="100"/>
</g>
</svg>
