<?xml version="1.0" encoding="utf-8"?>
<!-- Generator: Adobe Illustrator 25.2.3, SVG Export Plug-In . SVG Version: 6.00 Build 0)  -->
<svg version="1.1" xmlns="http://www.w3.org/2000/svg" xmlns:xlink="http://www.w3.org/1999/xlink" x="0px" y="0px"
	 viewBox="0 0 100 100" style="enable-background:new 0 0 100 100;" xml:space="preserve">
<style type="text/css">
	.st0{fill:#EAEDF4;}
	.st1{fill:#95BB7B;}
	.st2{fill:#C54756;}
	.st3{fill:#FFFFFF;}
	.st4{fill:#B5B5B5;stroke:#000000;stroke-width:1.1359;stroke-linecap:round;stroke-linejoin:round;stroke-miterlimit:10;}
	.st5{fill:none;stroke:#000000;stroke-width:1.1359;stroke-linecap:round;stroke-linejoin:round;stroke-miterlimit:10;}
	.st6{fill:#DDC39E;}
	.st7{fill:#205B52;}
	.st8{fill:#FBD586;}
	.st9{fill:#F9E9CD;}
	.st10{fill:none;stroke:#141518;stroke-width:1.2449;stroke-linecap:round;stroke-linejoin:round;stroke-miterlimit:10;}
	.st11{fill:#C3E0AA;}
	.st12{fill:#E2B360;}
	.st13{fill:#184D47;}
	.st14{fill:#E2E2E2;stroke:#000000;stroke-width:1.1359;stroke-linecap:round;stroke-linejoin:round;stroke-miterlimit:10;}
	.st15{fill:#E2E2E2;}
	.st16{fill:#B5B5B5;}
	.st17{fill:#E2E2E2;stroke:#141518;stroke-width:1.1511;stroke-linecap:round;stroke-linejoin:round;stroke-miterlimit:10;}
	.st18{fill:#141518;stroke:#000000;stroke-miterlimit:10;}
	.st19{fill:#51442E;}
	.st20{fill:#FBD586;stroke:#000000;stroke-width:1.1359;stroke-linecap:round;stroke-linejoin:round;stroke-miterlimit:10;}
	.st21{fill:#95BB7B;stroke:#000000;stroke-width:1.1359;stroke-miterlimit:10;}
	.st22{fill:#EAEAEA;stroke:#000000;stroke-width:1.1359;stroke-miterlimit:10;}
	.st23{fill:none;stroke:#141518;stroke-width:1.1359;stroke-linecap:round;stroke-linejoin:round;stroke-miterlimit:10;}
	.st24{fill:#184D47;stroke:#000000;stroke-width:1.1359;stroke-linecap:round;stroke-linejoin:round;stroke-miterlimit:10;}
	.st25{fill:#933449;}
	.st26{fill:#EAEAEA;stroke:#000000;stroke-width:1.1359;stroke-linecap:round;stroke-linejoin:round;stroke-miterlimit:10;}
	.st27{fill:#F7DDAD;}
	.st28{fill:#B7DB97;stroke:#000000;stroke-width:1.1359;stroke-linecap:round;stroke-linejoin:round;stroke-miterlimit:10;}
	.st29{fill:#C54756;stroke:#000000;stroke-width:1.1359;stroke-linecap:round;stroke-linejoin:round;stroke-miterlimit:10;}
	.st30{fill:#E56782;}
	.st31{fill:#FFFFFF;stroke:#000000;stroke-width:1.1359;stroke-linecap:round;stroke-linejoin:round;stroke-miterlimit:10;}
	.st32{fill:none;}
</style>
<g id="Layer_2">
	<path class="st0" d="M28.4,23.48c8.19-6.73,19.19-11.09,29.78-11.62c17.88-0.9,37.87,18.22,35.67,36.55
		c-0.39,3.28-1.28,6.64-3.49,9.09c-2.79,3.07-7.17,4.14-11.31,4.35c-4.14,0.21-8.33-0.26-12.42,0.43
		c-8.18,1.4-14.94,6.57-21.3,11.57c-5.54,4.36-12.69,11.51-20.05,12.25c-4.87,0.49-9.46-2.59-12.56-6.37
		c-6.9-8.41-7.15-20.74-3.73-30.18C12.92,38.72,19.22,31.03,28.4,23.48z"/>
</g>
<g id="Layer_1">
	<g>
		<polygon class="st3" points="30.14,27.93 30.82,35.23 37.22,36.42 50.07,36.85 61.94,36.55 71.99,35.14 72.58,26.1 67.45,27.21 
			56.67,27.87 45.57,27.85 33.09,26.92 30.14,26.3 		"/>
		<g>
			<polyline class="st30" points="31.3,35.2 37.22,36.42 38.13,36.05 39.26,33.04 34.08,33.51 31.47,34.21 31.3,35.2 			"/>
			<polyline class="st30" points="50.3,32.64 61.67,32.92 70.2,33.9 71.99,35.14 67.41,36.06 54.6,36.83 50.66,36.83 49.8,33.92 
				49.56,32.82 			"/>
		</g>
		<path class="st26" d="M34.72,82.86v4.06h0.12c0,0.91,7.45,1.64,16.64,1.64s16.64-0.73,16.64-1.64l-0.12-4.06"/>
		<polygon class="st2" points="30.82,35.23 34.63,81.76 35.39,83.32 45.28,84.5 63.5,83.98 67.68,83.19 68.31,79.24 70.12,57.58 
			71.99,35.65 69.08,35.96 55.08,36.72 45.25,36.76 35.7,36.11 		"/>
		<path class="st5" d="M29.96,25.82l4.76,57.04c0,0.91,7.45,1.64,16.65,1.64s16.65-0.73,16.65-1.64l4.76-57.04H29.96z"/>
		<g>
			
				<rect x="39.33" y="34.99" transform="matrix(0.9495 -0.3137 0.3137 0.9495 -10.1938 15.7713)" class="st26" width="9.15" height="9.15"/>
			<polygon class="st26" points="38.13,36.65 39.6,33.07 48.15,30.37 46.82,33.78 			"/>
			<polygon class="st26" points="48.15,30.37 51.25,39.25 49.69,42.47 46.82,33.78 			"/>
		</g>
		<ellipse class="st26" cx="51.37" cy="25.82" rx="21.4" ry="2.11"/>
		<g>
			
				<rect x="54.48" y="47.32" transform="matrix(0.8678 0.497 -0.497 0.8678 33.5997 -22.4883)" class="st26" width="9.15" height="9.15"/>
			<polygon class="st26" points="57.36,45.65 61,44.35 68.73,48.91 65.3,50.2 			"/>
			<polygon class="st26" points="68.73,48.91 64.19,57.15 60.75,58.14 65.3,50.2 			"/>
		</g>
		<g>
			
				<rect x="44.52" y="56.87" transform="matrix(0.3438 -0.939 0.939 0.3438 -25.4871 86.4243)" class="st26" width="9.15" height="9.15"/>
			<polygon class="st26" points="43.23,64.17 41.34,60.8 44.53,52.42 46.37,55.58 			"/>
			<polygon class="st26" points="44.53,52.42 53.41,55.51 54.97,58.73 46.37,55.58 			"/>
		</g>
		<path class="st5" d="M49.03,32.65c0.42,0,0.84-0.01,1.27-0.01c0.35,0,0.71,0,1.06,0c11.35,0,20.55,0.94,20.55,2.11
			c0,1.16-9.2,2.11-20.55,2.11s-20.55-0.94-20.55-2.11c0-0.72,3.47-1.35,8.78-1.73"/>
		<g>
			<polygon class="st31" points="54.82,76.7 50.66,76.44 53.89,36.95 58.07,36.78 			"/>
		</g>
		<g>
			<path class="st31" d="M60.09,36.47l-4.19,0.36l2.82-19.98c0.27-1.87,1.35-3.5,2.96-4.48c1.61-0.98,3.56-1.19,5.34-0.57
				l14.62,5.07l-1.36,3.94l-14.62-5.07c-0.61-0.21-1.27-0.14-1.81,0.19c-0.55,0.33-0.91,0.89-1,1.52L60.09,36.47z"/>
		</g>
		<line class="st26" x1="62.98" y1="16.92" x2="59.36" y2="15.3"/>
		<line class="st26" x1="64.4" y1="15.69" x2="64.4" y2="11.74"/>
		<path class="st31" d="M56.67,27.87c0,0,4.7-0.18,4.94-0.19"/>
		<path class="st3" d="M38.75,58.54c0.09,5.2,0.54,14.03,2.59,22.94h-3.71l-1.94-22.76"/>
		<path class="st3" d="M35.57,57.26l-0.29-3.38h3.46c0,0-0.05,1.18-0.03,3.2"/>
	</g>
	<rect y="0" class="st32" width="100" height="100"/>
</g>
</svg>
