<?xml version="1.0" encoding="utf-8"?>
<!-- Generator: Adobe Illustrator 25.2.3, SVG Export Plug-In . SVG Version: 6.00 Build 0)  -->
<svg version="1.1" xmlns="http://www.w3.org/2000/svg" xmlns:xlink="http://www.w3.org/1999/xlink" x="0px" y="0px"
	 viewBox="0 0 100 100" style="enable-background:new 0 0 100 100;" xml:space="preserve">
<style type="text/css">
	.st0{fill:#EAEDF4;}
	.st1{fill:#95BB7B;}
	.st2{fill:#C54756;}
	.st3{fill:#FFFFFF;}
	.st4{fill:#B5B5B5;stroke:#000000;stroke-width:1.1359;stroke-linecap:round;stroke-linejoin:round;stroke-miterlimit:10;}
	.st5{fill:none;stroke:#000000;stroke-width:1.1359;stroke-linecap:round;stroke-linejoin:round;stroke-miterlimit:10;}
	.st6{fill:#DDC39E;}
	.st7{fill:#205B52;}
	.st8{fill:#FBD586;}
	.st9{fill:#F9E9CD;}
	.st10{fill:none;stroke:#141518;stroke-width:1.2449;stroke-linecap:round;stroke-linejoin:round;stroke-miterlimit:10;}
	.st11{fill:#C3E0AA;}
	.st12{fill:#E2B360;}
	.st13{fill:#184D47;}
	.st14{fill:#E2E2E2;stroke:#000000;stroke-width:1.1359;stroke-linecap:round;stroke-linejoin:round;stroke-miterlimit:10;}
	.st15{fill:#E2E2E2;}
	.st16{fill:#B5B5B5;}
	.st17{fill:#E2E2E2;stroke:#141518;stroke-width:1.1511;stroke-linecap:round;stroke-linejoin:round;stroke-miterlimit:10;}
	.st18{fill:#141518;stroke:#000000;stroke-miterlimit:10;}
	.st19{fill:#51442E;}
	.st20{fill:#FBD586;stroke:#000000;stroke-width:1.1359;stroke-linecap:round;stroke-linejoin:round;stroke-miterlimit:10;}
	.st21{fill:#95BB7B;stroke:#000000;stroke-width:1.1359;stroke-miterlimit:10;}
	.st22{fill:#EAEAEA;stroke:#000000;stroke-width:1.1359;stroke-miterlimit:10;}
	.st23{fill:none;stroke:#141518;stroke-width:1.1359;stroke-linecap:round;stroke-linejoin:round;stroke-miterlimit:10;}
	.st24{fill:#184D47;stroke:#000000;stroke-width:1.1359;stroke-linecap:round;stroke-linejoin:round;stroke-miterlimit:10;}
	.st25{fill:#933449;}
	.st26{fill:#EAEAEA;stroke:#000000;stroke-width:1.1359;stroke-linecap:round;stroke-linejoin:round;stroke-miterlimit:10;}
	.st27{fill:#F7DDAD;}
	.st28{fill:#B7DB97;stroke:#000000;stroke-width:1.1359;stroke-linecap:round;stroke-linejoin:round;stroke-miterlimit:10;}
	.st29{fill:#C54756;stroke:#000000;stroke-width:1.1359;stroke-linecap:round;stroke-linejoin:round;stroke-miterlimit:10;}
	.st30{fill:#E56782;}
	.st31{fill:#FFFFFF;stroke:#000000;stroke-width:1.1359;stroke-linecap:round;stroke-linejoin:round;stroke-miterlimit:10;}
	.st32{fill:none;}
</style>
<g id="Layer_2">
	<path class="st0" d="M70.83,24.72c8.38,6.49,15.07,16.25,17.93,26.46c4.84,17.24-9.38,40.96-27.74,42.88
		c-3.28,0.34-6.76,0.23-9.64-1.39c-3.61-2.03-5.62-6.08-6.75-10.07c-1.12-3.99-1.59-8.18-3.18-12.02
		c-3.17-7.67-9.72-13.11-16.01-18.2c-5.48-4.44-14.03-9.83-16.39-16.84c-1.56-4.64,0.43-9.79,3.43-13.66
		c6.67-8.59,18.64-11.57,28.6-10.32C52.54,13,61.43,17.44,70.83,24.72z"/>
</g>
<g id="Layer_1">
	<g>
		<polygon class="st12" points="8.65,59.35 8.45,63.05 10.23,65.08 15.39,67.77 21.48,69.86 26.05,70.39 34.82,70.5 41.9,71.06 
			50.53,72.37 61.4,70.56 76.6,69.67 82.8,67.87 91.24,63.78 91.81,60.92 91.52,58.72 87.01,61.64 80.93,64.09 74.67,65.01 
			66.8,65.46 56.3,66.45 50.47,67.39 41.22,65.91 33.65,65.74 25.05,65.55 17.42,63.84 		"/>
		<path class="st4" d="M96.32,67.77v5.7c0,5.47-20.73,9.89-46.32,9.89c-25.58,0-46.32-4.42-46.32-9.89l0-5.7"/>
		<path class="st14" d="M91.46,63.35c3.12,1.33,4.87,2.83,4.87,4.42c0,5.46-20.74,9.89-46.32,9.89S3.68,73.23,3.68,67.77
			c0-1.54,1.65-3,4.58-4.29"/>
		<polygon class="st12" points="8.65,59.35 8.66,63.43 12.08,66.29 17.71,68.56 23.07,70.08 30.72,70.08 37.99,70.5 45.47,71.57 
			50.78,72 59.68,70.5 69.07,70.04 76.09,69.78 80.78,68.76 87.79,65.68 91.46,63.35 91.84,57.35 		"/>
		<polygon class="st8" points="27.96,65.66 38.14,65.66 47.75,67.25 56.3,66.45 68.17,65.3 78.18,64.69 89.5,60 91.84,57.35 
			87.57,53.2 79.21,50.26 67.44,49.3 57.63,48.43 47.56,47.46 39.69,48.9 30.46,49.61 20.98,49.97 15.39,51.91 11.08,53.91 
			8.65,56.44 8.65,59.35 15.88,63.03 22.17,65.13 		"/>
		<polygon class="st2" points="18.27,54.32 22.37,54.48 25.02,53.62 32.07,55.18 32.59,56.82 31.61,58.88 29.04,58.88 26.06,58.75 
			21.4,60.04 16.5,60.04 15.06,58.16 		"/>
		<polygon class="st2" points="39.64,56.44 42.23,55.25 45.75,54.57 49.68,53.2 52.79,56.44 54.57,57.86 58.91,59.9 58.22,61.85 
			54.54,62.73 49.54,61.83 45.5,60.2 41.32,60.5 39,59.06 		"/>
		<polygon class="st2" points="61.83,53.62 65.09,53.43 68.17,52.68 74.87,53.85 79.72,54.32 80.78,56.06 79.27,58.85 75.36,60.2 
			72.78,59.91 69.56,58.37 64.6,57.35 61.4,55.38 		"/>
		<g>
			<path class="st5" d="M9.85,54.65c-1.09,0.94-1.76,2.63-1.19,4.01c0.47,1.12,1.58,1.71,2.61,2.22c3.81,1.86,7.67,3.75,11.8,4.43
				c5.38,0.89,10.91-0.29,16.29,0.61c2.32,0.39,4.56,0.6,6.88,1.01c2.73,0.48,5.53,0.43,8.25-0.13c3.75-0.77,7.48-1.1,11.29-1.35
				c3.09-0.21,6.04-0.29,9.14-0.37c5.14-0.13,9.95-2.63,14.58-5.07c0.93-0.49,1.97-1.14,2.14-2.25c0.17-1.16-0.73-2.17-1.6-2.87
				c-4.06-3.26-9.17-4.59-14.18-5.11s-10.09-0.33-15.1-0.91c-4.61-0.53-9.2-1.72-13.82-1.32c-3.25,0.28-6.4,1.34-9.63,1.78
				c-3.98,0.55-8.02,0.15-12.03,0.26c-2.81,0.08-5.67,0.43-8.32,1.5c-1.22,0.49-2.21,1.32-3.36,1.9
				C12.32,53.62,10.99,53.66,9.85,54.65z"/>
			<path class="st5" d="M8.45,57.35c-0.76,1.84,0.21,6.07,0.21,6.07c0.47,1.12,1.58,1.71,2.61,2.22c3.81,1.86,7.67,3.75,11.8,4.43
				c5.38,0.89,10.91-0.29,16.29,0.61c2.32,0.39,4.56,0.6,6.88,1.01c2.73,0.48,5.53,0.43,8.25-0.13c3.75-0.77,7.48-1.1,11.29-1.35
				c3.09-0.21,6.04-0.29,9.14-0.37c5.14-0.13,9.95-2.63,14.58-5.07c0.93-0.49,1.97-1.14,2.14-2.25c0,0,0.46-2.31,0-4.77"/>
			<path class="st5" d="M20.26,54.36c-1.7,0.04-3.36,0.97-4.39,2.44c-0.24,0.34-0.45,0.73-0.48,1.16c-0.05,0.72,0.46,1.38,1.06,1.68
				c0.6,0.31,1.29,0.34,1.95,0.37c1.21,0.05,2.44,0.1,3.63-0.13c1.77-0.33,3.46-1.27,5.25-1.24c0.81,0.01,1.6,0.22,2.39,0.38
				c0.65,0.14,1.37,0.23,1.94-0.14c0.68-0.44,0.91-1.39,1-2.25c0.03-0.27,0.05-0.54-0.03-0.8c-0.21-0.69-0.98-0.92-1.64-1.04
				c-1.74-0.33-4.18-1.37-5.92-1.16c-0.71,0.08-1.32,0.68-2.06,0.81C22.08,54.58,21.15,54.32,20.26,54.36z"/>
			<path class="st5" d="M46.34,60.42c1.2,0.35,2.28,1.08,3.46,1.52c1.26,0.47,2.61,0.59,3.94,0.7c0.98,0.08,1.97,0.17,2.93-0.05
				c0.96-0.22,1.9-0.79,2.37-1.73c0.07-0.15,0.14-0.31,0.12-0.47c-0.02-0.19-0.14-0.35-0.26-0.48c-1.11-1.27-2.74-1.81-4.34-2.04
				c-1.59-0.23-2.94-3.86-4.51-4.19c-2.43-0.51-4.97,1.78-7.45,1.59c-2.21-0.17-4.97,2.04-2.84,4.48
				C41.25,61.43,44.42,59.86,46.34,60.42z"/>
			<path class="st5" d="M67.45,52.69c2.88-0.16,5.63,1.15,8.52,1.26c1.42,0.05,3.03-0.13,4.07,0.73c0.96,0.79,0.95,2.23,0.25,3.21
				c-0.7,0.98-1.93,1.58-3.17,1.94c-1.4,0.4-2.95,0.56-4.32,0.08c-0.8-0.28-1.49-0.75-2.26-1.09c-1.14-0.5-2.41-0.69-3.66-0.92
				c-1.25-0.23-2.51-0.5-3.56-1.14c-0.9-0.55-2.68-2.06-1.54-2.79c0.53-0.34,2.17-0.24,2.83-0.4
				C65.52,53.35,66.49,52.74,67.45,52.69z"/>
			<path class="st5" d="M35.84,54.32c0.7-1.18,1.88-2.02,3.16-2.24"/>
			<path class="st5" d="M62.52,60.11c1.64,1.28,3.63,2.04,5.65,2.14"/>
		</g>
		<path class="st5" d="M29.19,45.26c-1.96-2.73-2.49-6.43-1.35-9.6c0.64-1.8,1.77-3.39,2.53-5.14c1.59-3.69,1.44-8.09-0.41-11.66"/>
		<path class="st5" d="M48.63,50.67c2.01-1.66,3.16-4.31,2.99-6.91c-0.15-2.36-1.28-4.52-2.07-6.74c-0.79-2.22-1.21-4.81-0.03-6.85"
			/>
		<path class="st5" d="M70.5,46.14c-1.31-2.52-1.63-5.54-0.87-8.28c0.61-2.19,1.86-4.15,2.8-6.22c0.94-2.07,1.57-4.45,0.86-6.62
			c-0.48-1.46-1.52-2.66-2.28-3.99c-0.76-1.34-1.23-3.03-0.51-4.38"/>
		<polygon class="st3" points="60.27,77.99 58.69,82.61 64.11,82.31 65.88,77.64 		"/>
		<polygon class="st3" points="54.38,78.19 52.82,82.76 55.94,82.7 57.63,78.1 		"/>
	</g>
	<rect y="0" class="st32" width="100" height="100"/>
</g>
</svg>
