<?xml version="1.0" encoding="utf-8"?>
<!-- Generator: Adobe Illustrator 25.2.3, SVG Export Plug-In . SVG Version: 6.00 Build 0)  -->
<svg version="1.1" xmlns="http://www.w3.org/2000/svg" xmlns:xlink="http://www.w3.org/1999/xlink" x="0px" y="0px"
	 viewBox="0 0 100 100" style="enable-background:new 0 0 100 100;" xml:space="preserve">
<style type="text/css">
	.st0{fill:#EAEDF4;}
	.st1{fill:#95BB7B;}
	.st2{fill:#C54756;}
	.st3{fill:#FFFFFF;}
	.st4{fill:#B5B5B5;stroke:#000000;stroke-width:1.1359;stroke-linecap:round;stroke-linejoin:round;stroke-miterlimit:10;}
	.st5{fill:none;stroke:#000000;stroke-width:1.1359;stroke-linecap:round;stroke-linejoin:round;stroke-miterlimit:10;}
	.st6{fill:#DDC39E;}
	.st7{fill:#205B52;}
	.st8{fill:#FBD586;}
	.st9{fill:#F9E9CD;}
	.st10{fill:none;stroke:#141518;stroke-width:1.2449;stroke-linecap:round;stroke-linejoin:round;stroke-miterlimit:10;}
	.st11{fill:#C3E0AA;}
	.st12{fill:#E2B360;}
	.st13{fill:#184D47;}
	.st14{fill:#E2E2E2;stroke:#000000;stroke-width:1.1359;stroke-linecap:round;stroke-linejoin:round;stroke-miterlimit:10;}
	.st15{fill:#E2E2E2;}
	.st16{fill:#B5B5B5;}
	.st17{fill:#E2E2E2;stroke:#141518;stroke-width:1.1511;stroke-linecap:round;stroke-linejoin:round;stroke-miterlimit:10;}
	.st18{fill:#141518;stroke:#000000;stroke-miterlimit:10;}
	.st19{fill:#51442E;}
	.st20{fill:#FBD586;stroke:#000000;stroke-width:1.1359;stroke-linecap:round;stroke-linejoin:round;stroke-miterlimit:10;}
	.st21{fill:#95BB7B;stroke:#000000;stroke-width:1.1359;stroke-miterlimit:10;}
	.st22{fill:#EAEAEA;stroke:#000000;stroke-width:1.1359;stroke-miterlimit:10;}
	.st23{fill:none;stroke:#141518;stroke-width:1.1359;stroke-linecap:round;stroke-linejoin:round;stroke-miterlimit:10;}
	.st24{fill:#184D47;stroke:#000000;stroke-width:1.1359;stroke-linecap:round;stroke-linejoin:round;stroke-miterlimit:10;}
	.st25{fill:#933449;}
	.st26{fill:#EAEAEA;stroke:#000000;stroke-width:1.1359;stroke-linecap:round;stroke-linejoin:round;stroke-miterlimit:10;}
	.st27{fill:#F7DDAD;}
	.st28{fill:#B7DB97;stroke:#000000;stroke-width:1.1359;stroke-linecap:round;stroke-linejoin:round;stroke-miterlimit:10;}
	.st29{fill:#C54756;stroke:#000000;stroke-width:1.1359;stroke-linecap:round;stroke-linejoin:round;stroke-miterlimit:10;}
	.st30{fill:#E56782;}
	.st31{fill:#FFFFFF;stroke:#000000;stroke-width:1.1359;stroke-linecap:round;stroke-linejoin:round;stroke-miterlimit:10;}
	.st32{fill:none;}
</style>
<g id="Layer_2">
	<path class="st0" d="M30.07,79.12c-8.68-6.08-15.83-15.51-19.19-25.57C5.23,36.57,18.28,12.19,36.53,9.39
		c3.26-0.5,6.74-0.55,9.69,0.92c3.71,1.86,5.91,5.8,7.22,9.73c1.32,3.93,1.98,8.1,3.75,11.85c3.54,7.5,10.34,12.63,16.86,17.41
		c5.69,4.17,14.49,9.14,17.18,16.03c1.78,4.56,0.05,9.8-2.76,13.81c-6.25,8.9-18.06,12.45-28.07,11.69
		C48.91,89.95,39.82,85.95,30.07,79.12z"/>
</g>
<g id="Layer_1">
	<g>
		<polyline class="st3" points="31.95,16.59 31.95,29.1 68,28.81 68.05,15.52 61.36,16.83 50.72,17.51 37.74,16.88 32.48,15.7 
			31.95,16.59 		"/>
		<polyline class="st8" points="31.95,30.37 31.95,36.24 31.95,40.61 33.41,44.43 35.55,47.91 38.12,50.45 41.05,52.3 44.42,53.51 
			48.21,53.95 51.62,53.95 55.67,53.45 59.09,52.16 61.97,50.29 64.8,47.34 66.94,43.48 67.84,40.18 68.05,36.24 68.05,30.92 
			68.05,29.1 31.95,29.1 31.95,30.37 		"/>
		<ellipse class="st27" cx="50" cy="29.1" rx="18.05" ry="2.38"/>
		<path class="st3" d="M35.67,35.46c0,0-1.37,7.54,5.58,13.28h3.88c0,0-7.45-4.74-6.44-13.28H35.67z"/>
		<path class="st5" d="M68.05,15.13v22.4c0,9.07-7.36,16.43-16.43,16.43h-3.41c-8.98,0-16.26-7.28-16.26-16.26V15.13"/>
		<ellipse class="st26" cx="50" cy="15.13" rx="18.05" ry="2.38"/>
		<path class="st22" d="M52,83.81c6.29,0.13,11.11,0.85,11.11,1.71c0,0.96-5.87,1.73-13.12,1.73s-13.12-0.78-13.12-1.73
			c0-0.88,4.93-1.6,11.33-1.72"/>
		<ellipse class="st5" cx="50" cy="29.1" rx="18.05" ry="2.38"/>
		<polyline class="st26" points="48.21,85.22 48.21,53.95 51.79,53.95 51.79,85.22 		"/>
	</g>
	<rect y="0" class="st32" width="100" height="100"/>
</g>
</svg>
