<?xml version="1.0" encoding="utf-8"?>
<!-- Generator: Adobe Illustrator 25.2.3, SVG Export Plug-In . SVG Version: 6.00 Build 0)  -->
<svg version="1.1" xmlns="http://www.w3.org/2000/svg" xmlns:xlink="http://www.w3.org/1999/xlink" x="0px" y="0px"
	 viewBox="0 0 100 100" style="enable-background:new 0 0 100 100;" xml:space="preserve">
<style type="text/css">
	.st0{fill:#EAEDF4;}
	.st1{fill:#95BB7B;}
	.st2{fill:#C54756;}
	.st3{fill:#FFFFFF;}
	.st4{fill:#B5B5B5;stroke:#000000;stroke-width:1.1359;stroke-linecap:round;stroke-linejoin:round;stroke-miterlimit:10;}
	.st5{fill:none;stroke:#000000;stroke-width:1.1359;stroke-linecap:round;stroke-linejoin:round;stroke-miterlimit:10;}
	.st6{fill:#DDC39E;}
	.st7{fill:#205B52;}
	.st8{fill:#FBD586;}
	.st9{fill:#F9E9CD;}
	.st10{fill:none;stroke:#141518;stroke-width:1.2449;stroke-linecap:round;stroke-linejoin:round;stroke-miterlimit:10;}
	.st11{fill:#C3E0AA;}
	.st12{fill:#E2B360;}
	.st13{fill:#184D47;}
	.st14{fill:#E2E2E2;stroke:#000000;stroke-width:1.1359;stroke-linecap:round;stroke-linejoin:round;stroke-miterlimit:10;}
	.st15{fill:#E2E2E2;}
	.st16{fill:#B5B5B5;}
	.st17{fill:#E2E2E2;stroke:#141518;stroke-width:1.1511;stroke-linecap:round;stroke-linejoin:round;stroke-miterlimit:10;}
	.st18{fill:#141518;stroke:#000000;stroke-miterlimit:10;}
	.st19{fill:#51442E;}
	.st20{fill:#FBD586;stroke:#000000;stroke-width:1.1359;stroke-linecap:round;stroke-linejoin:round;stroke-miterlimit:10;}
	.st21{fill:#95BB7B;stroke:#000000;stroke-width:1.1359;stroke-miterlimit:10;}
	.st22{fill:#EAEAEA;stroke:#000000;stroke-width:1.1359;stroke-miterlimit:10;}
	.st23{fill:none;stroke:#141518;stroke-width:1.1359;stroke-linecap:round;stroke-linejoin:round;stroke-miterlimit:10;}
	.st24{fill:#184D47;stroke:#000000;stroke-width:1.1359;stroke-linecap:round;stroke-linejoin:round;stroke-miterlimit:10;}
	.st25{fill:#933449;}
	.st26{fill:#EAEAEA;stroke:#000000;stroke-width:1.1359;stroke-linecap:round;stroke-linejoin:round;stroke-miterlimit:10;}
	.st27{fill:#F7DDAD;}
	.st28{fill:#B7DB97;stroke:#000000;stroke-width:1.1359;stroke-linecap:round;stroke-linejoin:round;stroke-miterlimit:10;}
	.st29{fill:#C54756;stroke:#000000;stroke-width:1.1359;stroke-linecap:round;stroke-linejoin:round;stroke-miterlimit:10;}
	.st30{fill:#E56782;}
	.st31{fill:#FFFFFF;stroke:#000000;stroke-width:1.1359;stroke-linecap:round;stroke-linejoin:round;stroke-miterlimit:10;}
	.st32{fill:none;}
</style>
<g id="Layer_2">
	<path class="st0" d="M58.7,11.38c10.37,2.21,20.63,8.1,27.65,16.05c11.85,13.43,9.35,40.97-6.36,50.67
		c-2.81,1.73-5.99,3.14-9.28,2.93c-4.14-0.26-7.7-3.03-10.45-6.14c-2.75-3.11-4.99-6.68-8.08-9.44c-6.19-5.53-14.45-7.59-22.32-9.44
		c-6.86-1.62-16.91-2.76-22.08-8.05c-3.42-3.5-3.87-9.01-2.85-13.79C7.2,23.54,16.69,15.66,26.2,12.46
		C37.13,8.78,47.07,8.91,58.7,11.38z"/>
</g>
<g id="Layer_1">
	<g>
		<polygon class="st1" points="36.81,17.93 19.89,75.02 46.81,75.02 63.92,17.93 		"/>
		<polygon class="st13" points="67.01,29.45 79.63,71.83 54.39,71.83 		"/>
		<polygon class="st3" points="64.25,17.8 70.09,17.93 69.68,20.02 51.04,82.07 45.25,82.07 45.93,78.98 		"/>
		<polyline class="st15" points="31.08,17.93 36.51,17.93 36.37,19.43 17.44,82.07 11.13,82.07 11.34,79.91 30.23,18.54 
			31.08,17.93 		"/>
		<polyline class="st16" points="70.92,19.54 88.86,82.2 83.39,82.2 67.01,30.28 69.69,20.45 70.58,19.35 70.92,19.54 		"/>
		<polyline class="st15" points="70.09,19.35 51.42,81.8 45.14,81.8 63.92,18.41 69.87,18.17 70.09,19.35 		"/>
		<polygon class="st5" points="10.64,82.2 30.41,17.93 70.44,17.93 51.31,82.2 44.77,82.2 47,75.02 19.89,75.02 17.82,82.2 		"/>
		<line class="st5" x1="19.89" y1="75.02" x2="36.81" y2="17.93"/>
		<line class="st5" x1="47" y1="75.02" x2="63.92" y2="17.93"/>
		<polyline class="st5" points="54.39,71.83 79.63,71.83 67.01,29.45 		"/>
		<polyline class="st5" points="70.44,17.93 89.36,82.2 83.1,82.2 79.63,71.83 		"/>
		<line class="st5" x1="37.46" y1="35.85" x2="51.61" y2="35.85"/>
		<line class="st5" x1="36.33" y1="39.24" x2="50.48" y2="39.24"/>
		<line class="st5" x1="34.36" y1="46.77" x2="48.51" y2="46.77"/>
		<line class="st5" x1="33.24" y1="50.15" x2="47.38" y2="50.15"/>
		<line class="st5" x1="31.15" y1="57.74" x2="45.29" y2="57.74"/>
		<line class="st5" x1="30.02" y1="61.12" x2="44.17" y2="61.12"/>
		<circle class="st18" cx="38.95" cy="21.16" r="0.59"/>
		<circle class="st18" cx="23.82" cy="71.83" r="0.59"/>
		<circle class="st18" cx="45.13" cy="71.83" r="0.59"/>
		<circle class="st18" cx="59.8" cy="21.16" r="0.59"/>
		<polygon class="st3" points="37.69,26.59 56.09,26.52 55.18,29.6 36.81,29.6 		"/>
	</g>
	<rect class="st32" width="100" height="100"/>
</g>
</svg>
