<?xml version="1.0" encoding="utf-8"?>
<!-- Generator: Adobe Illustrator 25.2.0, SVG Export Plug-In . SVG Version: 6.00 Build 0)  -->
<svg version="1.1" id="Layer_1" xmlns="http://www.w3.org/2000/svg" xmlns:xlink="http://www.w3.org/1999/xlink" x="0px" y="0px"
	 viewBox="0 0 44 44" style="enable-background:new 0 0 44 44;" xml:space="preserve">
<style type="text/css">
	.st0{clip-path:url(#SVGID_2_);}
	.st1{fill:none;stroke:#141518;stroke-width:0.6;stroke-linecap:round;stroke-linejoin:round;}
</style>
<g transform="translate(0 0)">
	<g>
		<defs>
			<rect id="SVGID_1_" width="44" height="44"/>
		</defs>
		<clipPath id="SVGID_2_">
			<use xlink:href="#SVGID_1_"  style="overflow:visible;"/>
		</clipPath>
		<g class="st0">
			<path class="st1" d="M3,22.3C3,26,3.9,35.1,13.6,38.8c1.4,0.5,2.9,0.8,4.4,0.8h7.5c1.3,0,2.7-0.2,4-0.6
				c4.1-1.3,11.6-5.4,11.5-16.8c0-0.8-0.7-1.5-1.5-1.5H4.7C3.7,20.7,3,21.4,3,22.3z"/>
			<path class="st1" d="M6.6,20.7C7.1,19.9,7,18.8,6.3,18c-0.6-0.6-1.5-1.1-1.9-2c-0.4-0.8-0.3-1.7,0.3-2.4c0.7-0.8,2-1.1,2.4-2.1
				c0.3-0.8,0-1.7,0.5-2.5c0.5-0.7,1.4-1,2.3-0.7c0.8,0.3,1.6,0.7,2.2,1.3c0.7,0.6,1.5,0.9,2.4,1c1.1,0,2.1-0.8,3.1-0.7
				c1.1,0.1,1.9,0.8,2.1,1.9c0,0.7,0,1.5-0.3,2.1c-0.2,0.7-0.2,1.5,0.2,2.1c0.5,0.7,1.5,0.9,2.1,1.5c0.8,0.8,0.8,2,0.6,3.2"/>
			<path class="st1" d="M22.2,18.3c-0.1-0.9,0-1.9,0.3-2.8c0.3-0.9,1.2-1.6,2.2-1.5c0.7,0.2,1.4,0.6,1.9,1.1
				c0.6,0.5,1.4,0.6,2.1,0.3c0.3-0.3,0.5-0.6,0.5-0.9c0.2-0.7,0.5-1.4,0.9-2.1c0.4-0.6,1-1.1,1.7-1.3c1.3-0.2,2.5,0.5,3,1.7
				c0.1,0.3,0.3,0.6,0.5,0.9c0.4,0.2,0.9,0.1,1.3,0.1c1,0,1.9,0.6,2.3,1.5c0.4,0.9,0.4,1.9,0.1,2.9c-0.3,0.9-0.8,1.8-1.3,2.6"/>
			<path class="st1" d="M12.9,10c0.4-1.8,2-3,3.8-3c0.6,0,1.2,0.2,1.9,0.2c0.6,0.1,1.3-0.1,1.7-0.6c0.3-0.4,0.4-0.9,0.7-1.3
				c0.2-0.3,0.5-0.5,0.9-0.6c0.7-0.4,1.5-0.5,2.3-0.3c0.8,0.2,1.4,0.8,1.6,1.5c0,0.5,0.1,0.9,0.2,1.4c0.2,0.4,0.6,0.7,1,0.8
				c0.4,0.2,0.9,0.2,1.3,0.4c1.3,0.5,2.2,1.8,2.3,3.2"/>
			<path class="st1" d="M10.4,13.7c1.8,2,3.3,4.4,4.2,7"/>
			<path class="st1" d="M22.4,8.8c-1.1,2.7-1.5,5.6-1.1,8.4"/>
			<path class="st1" d="M32.7,15.5c0,0-0.4,3.4-1.9,5.1"/>
		</g>
	</g>
</g>
</svg>
