<?xml version="1.0" encoding="utf-8"?>
<!-- Generator: Adobe Illustrator 25.2.0, SVG Export Plug-In . SVG Version: 6.00 Build 0)  -->
<svg version="1.1" id="Layer_1" xmlns="http://www.w3.org/2000/svg" xmlns:xlink="http://www.w3.org/1999/xlink" x="0px" y="0px"
	 viewBox="0 0 44 44" style="enable-background:new 0 0 44 44;" xml:space="preserve">
<style type="text/css">
	.st0{clip-path:url(#SVGID_2_);}
	.st1{fill:none;stroke:#141518;stroke-width:0.6;stroke-linecap:round;stroke-linejoin:round;}
</style>
<g transform="translate(0 0)">
	<g>
		<defs>
			<rect id="SVGID_1_" width="44" height="44"/>
		</defs>
		<clipPath id="SVGID_2_">
			<use xlink:href="#SVGID_1_"  style="overflow:visible;"/>
		</clipPath>
		<g class="st0">
			<path class="st1" d="M2.3,24.7c-1.2-0.1-2-1.2-2-2.5c0-0.2,0-0.4,0.1-0.6c1.1-4.7,5.2-13,21.2-13.9c0,0,18.1-0.8,22.1,13.2
				c0.4,1.4-0.2,2.9-1.4,3.4c-0.2,0.1-0.3,0.1-0.5,0.1L2.3,24.7z"/>
			<path class="st1" d="M42.1,30.2c0.6,0.4,1,0.9,1,1.4c0,2.6-9.3,4.7-20.9,4.7S1.3,34.2,1.3,31.6c0.1-0.5,0.3-1,0.7-1.3"/>
			<line class="st1" x1="27.1" y1="27.2" x2="17.6" y2="27.2"/>
			<path class="st1" d="M34,27.2h6.5c1,0,1.8,0.9,1.8,2.1c0,1.2-0.8,2.1-1.8,2.1H3.7c-1,0-1.8-0.9-1.8-2.1c0-1.2,0.8-2.1,1.8-2.1
				c0,0,0,0,0,0h6.9"/>
			<line class="st1" x1="14.7" y1="8.7" x2="17.7" y2="13.4"/>
			<line class="st1" x1="20.3" y1="7.9" x2="23.3" y2="12.6"/>
			<line class="st1" x1="26.6" y1="8.1" x2="29.7" y2="12.7"/>
			<path class="st1" d="M7.6,24.7l6.7,5.5l6-5.5"/>
			<path class="st1" d="M24,24.7l6.8,5.5l6.2-5.7"/>
			<path class="st1" d="M3.7,27.2c-0.6-0.5-0.7-1.5-0.3-2.1c0.1-0.1,0.2-0.3,0.3-0.3"/>
			<path class="st1" d="M39.2,24.6c0.6,0.5,0.7,1.5,0.3,2.1c-0.1,0.1-0.2,0.3-0.3,0.3"/>
		</g>
	</g>
</g>
</svg>
