<?xml version="1.0" encoding="utf-8"?>
<!-- Generator: Adobe Illustrator 25.2.0, SVG Export Plug-In . SVG Version: 6.00 Build 0)  -->
<svg version="1.1" id="Layer_1" xmlns="http://www.w3.org/2000/svg" xmlns:xlink="http://www.w3.org/1999/xlink" x="0px" y="0px"
	 viewBox="0 0 44 44" style="enable-background:new 0 0 44 44;" xml:space="preserve">
<style type="text/css">
	.st0{clip-path:url(#SVGID_2_);}
	.st1{fill:none;stroke:#141518;stroke-width:0.6;stroke-linecap:round;stroke-linejoin:round;}
	.st2{clip-path:url(#SVGID_4_);}
	.st3{fill:none;}
</style>
<g>
	<defs>
		<rect id="SVGID_1_" x="0.3" y="4.2" width="43.5" height="35.6"/>
	</defs>
	<clipPath id="SVGID_2_">
		<use xlink:href="#SVGID_1_"  style="overflow:visible;"/>
	</clipPath>
	<g class="st0">
		<path class="st1" d="M0.6,39.5l10.8-35h21.8l-10.4,35h-3.6l1.2-3.9H5.6l-1.1,3.9H0.6z"/>
		<line class="st1" x1="5.6" y1="35.6" x2="14.8" y2="4.5"/>
		<line class="st1" x1="20.4" y1="35.6" x2="29.6" y2="4.5"/>
	</g>
</g>
<path class="st1" d="M24.4,33.8h13.7l-6.9-23.1"/>
<g>
	<defs>
		<rect id="SVGID_3_" x="0.3" y="4.2" width="43.5" height="35.6"/>
	</defs>
	<clipPath id="SVGID_4_">
		<use xlink:href="#SVGID_3_"  style="overflow:visible;"/>
	</clipPath>
	<g class="st2">
		<path class="st1" d="M33.1,4.5l10.3,35H40l-1.9-5.6"/>
	</g>
</g>
<line class="st1" x1="16.1" y1="9.3" x2="24.4" y2="9.3"/>
<line class="st1" x1="15.5" y1="11.1" x2="23.7" y2="11.1"/>
<line class="st1" x1="14.2" y1="15.8" x2="22.5" y2="15.8"/>
<line class="st1" x1="13.6" y1="17.6" x2="21.8" y2="17.6"/>
<line class="st1" x1="12" y1="22.3" x2="20.3" y2="22.3"/>
<line class="st1" x1="11.3" y1="24.2" x2="19.6" y2="24.2"/>
<rect class="st3" width="44" height="44"/>
</svg>
