<?xml version="1.0" encoding="utf-8"?>
<!-- Generator: Adobe Illustrator 25.2.3, SVG Export Plug-In . SVG Version: 6.00 Build 0)  -->
<svg version="1.1" xmlns="http://www.w3.org/2000/svg" xmlns:xlink="http://www.w3.org/1999/xlink" x="0px" y="0px"
	 viewBox="0 0 100 100" style="enable-background:new 0 0 100 100;" xml:space="preserve">
<style type="text/css">
	.st0{fill:#EAEDF4;}
	.st1{fill:#95BB7B;}
	.st2{fill:#C54756;}
	.st3{fill:#FFFFFF;}
	.st4{fill:#B5B5B5;stroke:#000000;stroke-width:1.1359;stroke-linecap:round;stroke-linejoin:round;stroke-miterlimit:10;}
	.st5{fill:none;stroke:#000000;stroke-width:1.1359;stroke-linecap:round;stroke-linejoin:round;stroke-miterlimit:10;}
	.st6{fill:#DDC39E;}
	.st7{fill:#205B52;}
	.st8{fill:#FBD586;}
	.st9{fill:#F9E9CD;}
	.st10{fill:none;stroke:#141518;stroke-width:1.2449;stroke-linecap:round;stroke-linejoin:round;stroke-miterlimit:10;}
	.st11{fill:#C3E0AA;}
	.st12{fill:#E2B360;}
	.st13{fill:#184D47;}
	.st14{fill:#E2E2E2;stroke:#000000;stroke-width:1.1359;stroke-linecap:round;stroke-linejoin:round;stroke-miterlimit:10;}
	.st15{fill:#E2E2E2;}
	.st16{fill:#B5B5B5;}
	.st17{fill:#E2E2E2;stroke:#141518;stroke-width:1.1511;stroke-linecap:round;stroke-linejoin:round;stroke-miterlimit:10;}
	.st18{fill:#141518;stroke:#000000;stroke-miterlimit:10;}
	.st19{fill:#51442E;}
	.st20{fill:#FBD586;stroke:#000000;stroke-width:1.1359;stroke-linecap:round;stroke-linejoin:round;stroke-miterlimit:10;}
	.st21{fill:#95BB7B;stroke:#000000;stroke-width:1.1359;stroke-miterlimit:10;}
	.st22{fill:#EAEAEA;stroke:#000000;stroke-width:1.1359;stroke-miterlimit:10;}
	.st23{fill:none;stroke:#141518;stroke-width:1.1359;stroke-linecap:round;stroke-linejoin:round;stroke-miterlimit:10;}
	.st24{fill:#184D47;stroke:#000000;stroke-width:1.1359;stroke-linecap:round;stroke-linejoin:round;stroke-miterlimit:10;}
	.st25{fill:#933449;}
	.st26{fill:#EAEAEA;stroke:#000000;stroke-width:1.1359;stroke-linecap:round;stroke-linejoin:round;stroke-miterlimit:10;}
	.st27{fill:#F7DDAD;}
	.st28{fill:#B7DB97;stroke:#000000;stroke-width:1.1359;stroke-linecap:round;stroke-linejoin:round;stroke-miterlimit:10;}
	.st29{fill:#C54756;stroke:#000000;stroke-width:1.1359;stroke-linecap:round;stroke-linejoin:round;stroke-miterlimit:10;}
	.st30{fill:#E56782;}
	.st31{fill:#FFFFFF;stroke:#000000;stroke-width:1.1359;stroke-linecap:round;stroke-linejoin:round;stroke-miterlimit:10;}
	.st32{fill:none;}
	.st33{fill:none;stroke:#FFFFFF;stroke-width:1.1064;stroke-linecap:round;stroke-linejoin:round;stroke-miterlimit:10;}
</style>
<g id="Layer_2">
</g>
<g id="Layer_1">
	<rect y="0" class="st32" width="100" height="100"/>
	<g>
		<path class="st3" d="M56.04,53.64l4.94,0.74c0,0-2.43,10.93-2.75,25.87h-4.2C54.03,80.24,56.19,69.23,56.04,53.64z"/>
		<path class="st3" d="M56.26,51.64l0.5-4.64l4.83,0.57c0,0-0.05,2.78-0.61,4.74L56.26,51.64z"/>
		<path class="st33" d="M66.59,19.56c0,0,3.9,16.52-2.51,44.68c0,0-1.43,5.32-1.78,17.48c-0.02,0.78-0.59,1.44-1.37,1.57
			c-3.41,0.55-12.83,1.78-21.59,0.05c-0.77-0.15-1.31-0.84-1.3-1.63c0.03-3.23-0.11-11.64-1.97-18.04c0,0-6.58-23.31-2.53-44.13"/>
		<path class="st33" d="M40.2,33.53c-3.99-0.55-6.87-1.41-7.7-2.28"/>
		<path class="st33" d="M67.54,31.5c-1.54,1.47-8.91,2.68-17.49,2.68c-2.03,0-3.86-0.06-5.7-0.2"/>
		<path class="st33" d="M44.92,21.71c-1.05,2.82-1.58,5.94-1.29,8.95c0.18,1.89,2.15,6.26-0.73,7.09c-0.44,0.13-0.91,0.12-1.37,0.06
			c-1.15-0.16-1.79-1.49-1.72-2.66c0.07-1.15,0.64-2.21,1.03-3.3c1.16-3.23,0.76-6.78,0.28-10.18"/>
		<ellipse class="st33" cx="50.07" cy="18.74" rx="16.52" ry="2.98"/>
	</g>
</g>
</svg>
