<?xml version="1.0" encoding="utf-8"?>
<!-- Generator: Adobe Illustrator 25.2.3, SVG Export Plug-In . SVG Version: 6.00 Build 0)  -->
<svg version="1.1" xmlns="http://www.w3.org/2000/svg" xmlns:xlink="http://www.w3.org/1999/xlink" x="0px" y="0px"
	 viewBox="0 0 100 100" style="enable-background:new 0 0 100 100;" xml:space="preserve">
<style type="text/css">
	.st0{fill:#EAEDF4;}
	.st1{fill:#95BB7B;}
	.st2{fill:#C54756;}
	.st3{fill:#FFFFFF;}
	.st4{fill:#B5B5B5;stroke:#000000;stroke-width:1.1359;stroke-linecap:round;stroke-linejoin:round;stroke-miterlimit:10;}
	.st5{fill:none;stroke:#000000;stroke-width:1.1359;stroke-linecap:round;stroke-linejoin:round;stroke-miterlimit:10;}
	.st6{fill:#DDC39E;}
	.st7{fill:#205B52;}
	.st8{fill:#FBD586;}
	.st9{fill:#F9E9CD;}
	.st10{fill:none;stroke:#141518;stroke-width:1.2449;stroke-linecap:round;stroke-linejoin:round;stroke-miterlimit:10;}
	.st11{fill:#C3E0AA;}
	.st12{fill:#E2B360;}
	.st13{fill:#184D47;}
	.st14{fill:#E2E2E2;stroke:#000000;stroke-width:1.1359;stroke-linecap:round;stroke-linejoin:round;stroke-miterlimit:10;}
	.st15{fill:#E2E2E2;}
	.st16{fill:#B5B5B5;}
	.st17{fill:#E2E2E2;stroke:#141518;stroke-width:1.1511;stroke-linecap:round;stroke-linejoin:round;stroke-miterlimit:10;}
	.st18{fill:#141518;stroke:#000000;stroke-miterlimit:10;}
	.st19{fill:#51442E;}
	.st20{fill:#FBD586;stroke:#000000;stroke-width:1.1359;stroke-linecap:round;stroke-linejoin:round;stroke-miterlimit:10;}
	.st21{fill:#95BB7B;stroke:#000000;stroke-width:1.1359;stroke-miterlimit:10;}
	.st22{fill:#EAEAEA;stroke:#000000;stroke-width:1.1359;stroke-miterlimit:10;}
	.st23{fill:none;stroke:#141518;stroke-width:1.1359;stroke-linecap:round;stroke-linejoin:round;stroke-miterlimit:10;}
	.st24{fill:#184D47;stroke:#000000;stroke-width:1.1359;stroke-linecap:round;stroke-linejoin:round;stroke-miterlimit:10;}
	.st25{fill:#933449;}
	.st26{fill:#EAEAEA;stroke:#000000;stroke-width:1.1359;stroke-linecap:round;stroke-linejoin:round;stroke-miterlimit:10;}
	.st27{fill:#F7DDAD;}
	.st28{fill:#B7DB97;stroke:#000000;stroke-width:1.1359;stroke-linecap:round;stroke-linejoin:round;stroke-miterlimit:10;}
	.st29{fill:#C54756;stroke:#000000;stroke-width:1.1359;stroke-linecap:round;stroke-linejoin:round;stroke-miterlimit:10;}
	.st30{fill:#E56782;}
	.st31{fill:#FFFFFF;stroke:#000000;stroke-width:1.1359;stroke-linecap:round;stroke-linejoin:round;stroke-miterlimit:10;}
	.st32{fill:none;}
	.st33{fill:none;stroke:#FFFFFF;stroke-width:1.1064;stroke-linecap:round;stroke-linejoin:round;stroke-miterlimit:10;}
</style>
<g id="Layer_2">
</g>
<g id="Layer_1">
	<rect y="0" class="st32" width="100" height="100"/>
	<g>
		<path class="st3" d="M52.31,34.85c-0.29,0-0.52-0.23-0.52-0.52v-4.32c0-0.98-0.8-1.79-1.79-1.79s-1.79,0.8-1.79,1.79v4.32
			c0,0.29-0.23,0.52-0.52,0.52s-0.52-0.23-0.52-0.52v-4.32c0-1.56,1.27-2.82,2.82-2.82s2.82,1.27,2.82,2.82v4.32
			C52.83,34.61,52.6,34.85,52.31,34.85z"/>
		<path class="st3" d="M78.92,62.41c-0.29,0-0.52-0.23-0.52-0.52c0-14.95-12.74-27.11-28.39-27.11S21.6,46.94,21.6,61.89
			c0,0.29-0.23,0.52-0.52,0.52s-0.52-0.23-0.52-0.52c0-15.52,13.2-28.14,29.43-28.14s29.43,12.63,29.43,28.14
			C79.44,62.17,79.21,62.41,78.92,62.41z"/>
		<path class="st3" d="M80.72,72.82H19.28c-3.15,0-5.71-2.56-5.71-5.71c0-3.15,2.56-5.71,5.71-5.71h61.43
			c3.15,0,5.71,2.56,5.71,5.71S83.87,72.82,80.72,72.82z M19.28,62.44c-2.58,0-4.67,2.1-4.67,4.67s2.1,4.67,4.67,4.67h61.43
			c2.58,0,4.67-2.1,4.67-4.67s-2.1-4.67-4.67-4.67H19.28z"/>
		<path class="st3" d="M38.22,43.97c-3.29,2.58-7.96,7.28-8.98,13.79L26.4,57.1c0,0,1.83-9.15,9.6-14.92"/>
		<path class="st3" d="M37.06,41.38c0.94-0.64,1.97-1.24,3.08-1.76l1.78,1.78c0,0-1.11,0.6-2.66,1.75"/>
	</g>
</g>
</svg>
