<?xml version="1.0" encoding="utf-8"?>
<!-- Generator: Adobe Illustrator 25.2.3, SVG Export Plug-In . SVG Version: 6.00 Build 0)  -->
<svg version="1.1" id="Layer_1" xmlns="http://www.w3.org/2000/svg" xmlns:xlink="http://www.w3.org/1999/xlink" x="0px" y="0px"
	 viewBox="0 0 50 50" style="enable-background:new 0 0 50 50;" xml:space="preserve">
<style type="text/css">
	.st0{fill:#FFFFFF;}
	.st1{fill:none;stroke:#FFFFFF;stroke-width:2;stroke-linecap:round;stroke-linejoin:round;stroke-miterlimit:10;}
	.st2{fill:none;stroke:#000000;stroke-width:2;stroke-linecap:round;stroke-linejoin:round;stroke-miterlimit:10;}
	.st3{fill:none;stroke:#184D47;stroke-width:1.75;stroke-linecap:round;stroke-linejoin:round;stroke-miterlimit:10;}
</style>
<ellipse transform="matrix(0.9645 -0.2642 0.2642 0.9645 -4.3621 11.7085)" class="st3" cx="41.34" cy="22.07" rx="3.54" ry="4.84"/>
<g>
	<g>
		<g>
			<path class="st3" d="M11.57,23.64l1.17,5.35c0.4,1.82-0.51,3.57-2.03,3.9l-0.56,0.12c-1.52,0.33-3.08-0.87-3.47-2.7L5.5,24.96"/>
		</g>
		<g>
			<line class="st3" x1="8.53" y1="24.3" x2="9.7" y2="29.65"/>
		</g>
	</g>
</g>
<path class="st3" d="M40.88,30.63c-2.31,6.47-8.49,11.09-15.76,11.09c-6.3,0-11.79-3.49-14.64-8.63"/>
<path class="st3" d="M9.15,20.03c2.12-6.81,8.47-11.75,15.98-11.75c6.47,0,12.08,3.67,14.86,9.05"/>
</svg>
